<svg width="556" height="542" viewBox="0 0 556 542" fill="none" xmlns="http://www.w3.org/2000/svg">
<g clip-path="url(#clip0_201_9160)">
<path d="M459.479 275.69C353.881 214.775 183.235 214.775 78.3174 275.69C-26.6 336.616 -26.0387 435.375 79.5476 496.302C185.158 557.228 355.804 557.228 460.721 496.302C565.65 435.387 565.089 336.616 459.479 275.69Z" fill="#F5F5F5"/>
<path d="M503.148 394.261C512.608 388.806 527.896 388.806 537.296 394.261C546.696 399.715 546.648 408.57 537.189 414.024C527.729 419.478 512.44 419.478 503.04 414.024C493.64 408.57 493.688 399.727 503.148 394.261Z" fill="#E6E6E6"/>
<path d="M36.9316 471.86C62.074 457.359 102.684 457.359 127.659 471.86C152.635 486.36 152.503 509.872 127.361 524.372C102.218 538.873 61.5963 538.873 36.6211 524.372C11.6578 509.872 11.7892 486.36 36.9316 471.86Z" fill="#E6E6E6"/>
<path d="M146.316 348.993C122.619 335.328 84.3377 335.328 60.7958 348.993C37.2539 362.658 37.3853 384.821 61.0705 398.486C84.7677 412.151 123.049 412.151 146.591 398.486C170.144 384.821 170.013 362.658 146.316 348.993Z" fill="#E6E6E6"/>
<path d="M190.605 451.023C217.204 435.675 260.191 435.675 286.612 451.023C313.044 466.371 312.901 491.242 286.301 506.59C259.702 521.938 216.715 521.938 190.282 506.59C163.862 491.242 164.005 466.359 190.605 451.023Z" fill="#E6E6E6"/>
<path d="M181.479 296.098L476.069 464.866L491.178 456.07L196.516 287.338L181.479 296.098Z" fill="#E6E6E6"/>
<path d="M86.764 72.2535C87.5403 74.0676 86.6923 76.1681 84.8648 76.9438C83.0493 77.7196 80.9472 76.8722 80.1708 75.0462C79.3944 73.2322 80.2425 71.1317 82.058 70.3559C83.8735 69.5802 85.9756 70.4275 86.764 72.2535C86.764 72.2535 86.752 72.2535 86.764 72.2535Z" fill="#37474F"/>
<path d="M79.5617 75.5828C76.8385 75.2487 75.9665 73.2078 77.6148 71.0119C79.5737 68.6965 82.5119 67.4553 85.5457 67.6582C88.2571 67.9924 89.129 70.0452 87.4807 72.2173C85.5338 74.5326 82.5955 75.7857 79.5617 75.5828Z" fill="#455A64"/>
<path d="M78.9407 74.4484C76.1338 74.1023 75.238 71.9899 76.9341 69.7342C78.9527 67.3473 81.9865 66.0583 85.1039 66.2732C87.9108 66.6193 88.8066 68.7317 87.0986 70.9874C85.092 73.3743 82.0581 74.6632 78.9407 74.4484Z" fill="#37474F"/>
<path d="M78.3063 73.2794C75.4158 72.9214 74.4961 70.7493 76.2877 68.4698C78.354 66.0232 81.4715 64.6984 84.6725 64.9133C87.563 65.2594 88.4946 67.4434 86.7508 69.7587C84.6486 72.2173 81.5192 73.5301 78.3063 73.2794Z" fill="#455A64"/>
<path d="M77.6133 72.0504C74.6392 71.6923 73.6956 69.4486 75.4992 67.0497C77.6372 64.5077 80.8502 63.1471 84.1587 63.3619C87.1447 63.7319 88.0883 65.9637 86.2847 68.3745C84.1467 70.9166 80.9218 72.2771 77.6133 72.0504Z" fill="#37474F"/>
<path d="M76.946 70.7978C73.8524 70.3801 72.9208 68.1364 74.7721 65.6898C76.9579 63.1 80.2426 61.7036 83.6228 61.9423C86.6685 62.3004 87.636 64.5918 85.7846 67.0503C83.6108 69.6282 80.3262 71.0246 76.946 70.7978Z" fill="#455A64"/>
<path d="M65.0369 30.4342C56.3654 34.0862 52.2925 44.0875 55.9593 52.752C55.9713 52.7759 55.9832 52.7998 55.9952 52.8236C61.2984 65.2953 72.4542 63.0158 74.6161 68.0164C75.1178 68.9473 76.0852 69.5321 77.1483 69.556C80.0746 69.7589 82.9292 68.5535 84.8164 66.3098C85.5211 65.534 85.76 64.436 85.4494 63.4455C83.3114 58.421 92.7354 51.9763 87.4202 39.4926C83.7653 30.8281 73.7681 26.7584 65.0847 30.4104C65.0608 30.4223 65.0488 30.4223 65.0369 30.4342Z" fill="#DFBB7F"/>
<g opacity="0.6">
<path opacity="0.6" d="M65.0369 30.4342C56.3654 34.0862 52.2925 44.0875 55.9593 52.752C55.9713 52.7759 55.9832 52.7998 55.9952 52.8236C61.2984 65.2953 72.4542 63.0158 74.6161 68.0164C75.1178 68.9473 76.0852 69.5321 77.1483 69.556C80.0746 69.7589 82.9292 68.5535 84.8164 66.3098C85.5211 65.534 85.76 64.436 85.4494 63.4455C83.3114 58.421 92.7354 51.9763 87.4202 39.4926C83.7653 30.8281 73.7681 26.7584 65.0847 30.4104C65.0608 30.4223 65.0488 30.4223 65.0369 30.4342Z" fill="white"/>
</g>
<path d="M77.8297 68.5051C75.8828 68.2306 75.2139 66.7865 76.3725 65.2231C77.7939 63.5403 79.9438 62.6332 82.1535 62.7765C84.1004 63.051 84.7692 64.507 83.5629 66.1062C82.1415 67.7651 80.0155 68.6602 77.8297 68.5051Z" fill="#DFBB7F"/>
<path d="M81.9267 64.3403C81.64 64.4596 81.3056 64.3283 81.1742 64.0419C79.9081 61.0105 79.0004 57.8478 78.4748 54.6016C78.3196 53.6707 78.224 52.7159 78.2001 51.7731C77.6507 51.7969 77.0893 51.7611 76.5399 51.6776C75.5485 51.5224 74.5811 51.2241 73.6733 50.7706C73.3627 51.7134 72.9089 52.5966 72.3356 53.4081C72.0131 53.8616 71.6547 54.2674 71.2486 54.6493C71.9175 55.3296 72.5267 56.0576 73.1 56.8214C75.0708 59.447 76.731 62.3114 78.021 65.3308C78.1285 65.6292 77.9851 65.9634 77.6985 66.0827C77.3999 66.2021 77.0654 66.0469 76.946 65.7605C75.6799 62.8365 74.0794 60.0676 72.1683 57.5136C71.607 56.7498 70.9978 56.0337 70.3289 55.3654C69.3376 56.0337 68.0954 56.177 66.9726 55.7473C66.1246 55.4251 65.6349 54.5419 65.8021 53.6468C65.9215 53.0381 66.3874 52.5488 66.9965 52.4175C68.2865 52.3698 69.5287 52.9069 70.3887 53.8616C70.7589 53.5275 71.0934 53.1456 71.3681 52.7398C71.9294 51.964 72.3594 51.0928 72.6461 50.1738C71.6189 49.601 70.8784 48.6462 70.5917 47.5124C70.4842 46.7963 70.9023 46.1041 71.5831 45.8535C72.24 45.5432 73.0164 45.7222 73.4583 46.307C74.0794 47.2976 74.2586 48.503 73.96 49.6368C74.8199 50.0664 75.7277 50.3648 76.6832 50.508C77.1729 50.5796 77.6746 50.6035 78.1762 50.5677C78.1046 49.2787 78.5823 48.0256 79.502 47.1305C80.0276 46.7963 80.7084 46.8083 81.222 47.1663C81.9864 47.6556 82.285 48.6223 81.9267 49.4577C81.4609 50.5557 80.4934 51.3554 79.3229 51.606C79.3348 52.5488 79.4184 53.4917 79.5737 54.4226C80.0873 57.5733 80.9712 60.6405 82.2134 63.5764C82.3448 63.8748 82.2134 64.2209 81.9267 64.3403ZM67.1757 53.6229C67.0562 53.6826 66.9726 53.802 66.9607 53.9452C66.8412 54.4106 67.319 54.6732 67.4623 54.7329C68.1073 54.9716 68.812 54.8999 69.4092 54.5658C68.8359 53.981 68.0715 53.6349 67.2593 53.5871L67.1757 53.6229ZM79.4065 50.3648C80.0634 50.1619 80.6009 49.6964 80.8756 49.0639C80.9234 48.9207 81.0667 48.4075 80.6606 48.1569C80.4217 48.0137 80.2904 48.0733 80.1948 48.133C79.8723 48.3478 79.5259 49.0758 79.4065 50.3648ZM72.0847 46.9634C71.8697 47.0111 71.7383 47.214 71.7861 47.4289C71.9772 48.0733 72.3833 48.6343 72.9447 48.9923C73.0641 48.3359 72.9447 47.6556 72.6103 47.0708C72.5028 46.9037 72.2639 46.8441 72.0847 46.9634C72.0847 46.9634 72.0847 46.9515 72.0847 46.9634Z" fill="white"/>
<path d="M62.6126 24.4436C62.541 24.5153 62.4574 24.563 62.3618 24.5988C61.8004 24.8375 61.1435 24.5749 60.8927 24.014L58.5875 18.6792C58.3366 18.1183 58.5994 17.4619 59.1608 17.2232C59.1608 17.2232 59.1727 17.2232 59.1727 17.2113C59.7341 16.9726 60.391 17.2351 60.6419 17.796L62.9471 23.1308C63.1382 23.5963 62.9948 24.1214 62.6126 24.4436Z" fill="#E0E0E0"/>
<path d="M52.5312 32.4154C52.137 32.7257 51.5876 32.7377 51.1815 32.4393L46.5113 28.9782C46.0336 28.5844 45.9858 27.8683 46.38 27.4029C46.7502 26.9732 47.3713 26.8777 47.8491 27.188L52.5193 30.6491C53.009 31.0191 53.1165 31.7113 52.7462 32.2125C52.6865 32.2841 52.6148 32.3557 52.5312 32.4154Z" fill="#E0E0E0"/>
<path d="M47.8133 44.3502C47.5863 44.5412 47.2758 44.6247 46.9772 44.5889L41.1843 43.9206C40.5751 43.849 40.1332 43.3 40.1929 42.6913C40.2646 42.0826 40.8259 41.641 41.4351 41.7007L47.2161 42.3571C47.8252 42.4287 48.2671 42.9777 48.1955 43.5983C48.1835 43.8967 48.0402 44.1593 47.8133 44.3502Z" fill="#E0E0E0"/>
<path d="M49.6769 57.0613C49.6171 57.1449 49.5455 57.2045 49.4619 57.2642L44.1228 59.5676C43.5734 59.8182 42.9165 59.5676 42.6776 59.0186C42.6776 59.0067 42.6656 59.0067 42.6656 58.9947C42.4148 58.4338 42.6656 57.7774 43.227 57.5268H43.239L48.5541 55.1637C49.1274 54.937 49.7843 55.2234 50.0113 55.7963C50.1785 56.2259 50.0471 56.7391 49.6769 57.0613Z" fill="#E0E0E0"/>
<path d="M100.595 35.0652C100.535 35.1488 100.463 35.2085 100.38 35.2681L94.9927 37.5238C94.4314 37.7625 93.7744 37.4999 93.5355 36.939C93.2967 36.3781 93.5594 35.7216 94.1208 35.483L99.4598 33.1676C100.033 32.9409 100.69 33.2273 100.917 33.8002C101.084 34.2418 100.953 34.7549 100.595 35.0652Z" fill="#E0E0E0"/>
<path d="M87.277 27.3067C86.7873 27.6886 86.0826 27.5931 85.7004 27.1038C85.4018 26.7099 85.3898 26.161 85.6765 25.7671L89.1522 21.1007C89.5106 20.6113 90.1914 20.5039 90.6811 20.862L90.693 20.8739C91.1827 21.2319 91.3022 21.9242 90.9438 22.4254C90.9438 22.4254 90.9438 22.4254 90.9319 22.4373L87.4681 27.1038C87.4203 27.1754 87.3606 27.247 87.277 27.3067Z" fill="#E0E0E0"/>
<path d="M75.3327 22.5694C74.843 22.9513 74.1383 22.8797 73.7561 22.3904C73.5769 22.1636 73.4814 21.8652 73.5172 21.5669L74.2339 15.8382C74.3653 15.2296 74.9505 14.8477 75.5597 14.9789C76.0852 15.0864 76.4555 15.5637 76.4435 16.1008L75.7627 21.8772C75.7269 22.1517 75.5597 22.4023 75.3327 22.5694Z" fill="#E0E0E0"/>
<path d="M497.271 362.861L520.18 363.53L543.077 362.861C544.068 378.317 541.047 394.07 536.878 401.756H536.866C536.126 403.439 534.621 405.05 532.327 406.363C525.567 410.266 514.65 410.266 507.937 406.363C505.608 405.014 504.115 403.368 503.411 401.637C499.266 393.903 496.28 378.245 497.271 362.861Z" fill="white"/>
<path d="M504.032 353.492C495.062 358.672 495.015 367.062 503.925 372.241C512.835 377.421 527.335 377.421 536.317 372.241C545.288 367.062 545.335 358.672 536.425 353.492C527.503 348.313 513.003 348.313 504.032 353.492Z" fill="#EBEBEB"/>
<path d="M507.578 355.558C500.579 359.592 500.543 366.144 507.495 370.178C514.446 374.212 525.769 374.212 532.768 370.178C539.768 366.144 539.803 359.592 532.852 355.558C525.888 351.512 514.577 351.512 507.578 355.558Z" fill="#E0E0E0"/>
<g opacity="0.15">
<path opacity="0.15" d="M507.578 355.558C500.579 359.592 500.543 366.144 507.495 370.178C514.446 374.212 525.769 374.212 532.768 370.178C539.768 366.144 539.803 359.592 532.852 355.558C525.888 351.512 514.577 351.512 507.578 355.558Z" fill="black"/>
</g>
<path d="M531.849 316.029C535.576 311.399 539.9 307.257 543.316 302.4C545.645 299.082 547.592 295.024 546.612 291.098C545.704 287.446 542.288 284.737 538.598 284.044C534.895 283.352 531.025 284.462 527.836 286.443C524.647 288.424 522.043 291.241 519.702 294.177C506.886 310.241 500.639 331.401 502.682 351.845C502.92 354.184 503.303 356.655 504.808 358.469C506.42 360.414 509.227 361.274 511.652 360.557C517.886 358.708 517.062 350.282 518.078 345.329C519.475 338.538 521.9 331.962 525.244 325.887C527.155 322.426 529.365 319.12 531.849 316.029Z" fill="#455A64"/>
<path opacity="0.2" d="M531.849 316.029C535.576 311.399 539.9 307.257 543.316 302.4C545.645 299.082 547.592 295.024 546.612 291.098C545.704 287.446 542.288 284.737 538.598 284.044C534.895 283.352 531.025 284.462 527.836 286.443C524.647 288.424 522.043 291.241 519.702 294.177C506.886 310.241 500.639 331.401 502.682 351.845C502.92 354.184 503.303 356.655 504.808 358.469C506.42 360.414 509.227 361.274 511.652 360.557C517.886 358.708 517.062 350.282 518.078 345.329C519.475 338.538 521.9 331.962 525.244 325.887C527.155 322.426 529.365 319.12 531.849 316.029Z" fill="white"/>
<path d="M511.257 354.291C511.496 354.244 511.687 354.041 511.699 353.778C512.141 343.765 515.389 309.608 538.955 290.238C539.194 290.047 539.218 289.701 539.027 289.474C538.836 289.248 538.489 289.212 538.262 289.403C514.35 309.071 511.054 343.622 510.612 353.742C510.6 354.041 510.839 354.303 511.137 354.315C511.173 354.303 511.221 354.291 511.257 354.291Z" fill="#F0F0F0"/>
<path d="M507.818 355.365C508.534 359.292 511.903 364.149 515.462 365.963C518.985 367.754 523.094 368.243 527.036 367.897C531.061 367.551 534.967 366.393 538.789 365.116C540.676 364.484 542.778 363.624 542.981 361.285C543.089 360.056 542.527 358.85 541.643 357.991C541.273 357.633 540.855 357.275 540.425 356.941C539.541 356.261 539.959 354.852 541.07 354.769C542.193 354.697 543.316 354.566 544.414 354.351C546.971 353.862 549.491 352.883 551.45 351.176C552.919 349.887 554.03 348.205 554.698 346.367C555.272 344.791 555.427 342.822 554.233 341.653C553.552 340.984 552.572 340.722 551.629 340.519C550.793 340.34 549.957 340.185 549.109 340.053C547.986 339.874 547.807 338.359 548.846 337.917L552.393 336.437C553.385 336.031 554.412 335.59 555.093 334.766C556.179 333.453 556.108 331.544 555.773 329.873C555.343 327.653 554.567 325.505 554.041 323.309C553.516 321.101 553.241 318.786 553.803 316.59C547.174 315.921 540.354 316.232 533.904 317.915C531.981 318.416 530.022 319.048 528.469 320.29C526.247 322.056 525.674 324.717 525.913 327.605C525.961 328.154 525.208 328.357 524.946 327.88L522.676 323.691C521.995 322.426 520.443 321.96 519.141 322.569C517.182 323.488 515.438 324.956 513.945 326.651C512.344 328.477 511.532 330.876 511.723 333.286C511.986 336.556 512.559 339.862 513.384 343.037C513.599 343.872 512.667 344.493 511.974 343.992L511.867 343.908C511.246 343.455 510.481 343.192 509.729 343.288C507.722 343.538 507.208 345.567 507.077 347.298C506.898 349.816 507.352 352.764 507.818 355.365Z" fill="#455A64"/>
<path opacity="0.2" d="M507.818 355.365C508.534 359.292 511.903 364.149 515.462 365.963C518.985 367.754 523.094 368.243 527.036 367.897C531.061 367.551 534.967 366.393 538.789 365.116C540.676 364.484 542.778 363.624 542.981 361.285C543.089 360.056 542.527 358.85 541.643 357.991C541.273 357.633 540.855 357.275 540.425 356.941C539.541 356.261 539.959 354.852 541.07 354.769C542.193 354.697 543.316 354.566 544.414 354.351C546.971 353.862 549.491 352.883 551.45 351.176C552.919 349.887 554.03 348.205 554.698 346.367C555.272 344.791 555.427 342.822 554.233 341.653C553.552 340.984 552.572 340.722 551.629 340.519C550.793 340.34 549.957 340.185 549.109 340.053C547.986 339.874 547.807 338.359 548.846 337.917L552.393 336.437C553.385 336.031 554.412 335.59 555.093 334.766C556.179 333.453 556.108 331.544 555.773 329.873C555.343 327.653 554.567 325.505 554.041 323.309C553.516 321.101 553.241 318.786 553.803 316.59C547.174 315.921 540.354 316.232 533.904 317.915C531.981 318.416 530.022 319.048 528.469 320.29C526.247 322.056 525.674 324.717 525.913 327.605C525.961 328.154 525.208 328.357 524.946 327.88L522.676 323.691C521.995 322.426 520.443 321.96 519.141 322.569C517.182 323.488 515.438 324.956 513.945 326.651C512.344 328.477 511.532 330.876 511.723 333.286C511.986 336.556 512.559 339.862 513.384 343.037C513.599 343.872 512.667 344.493 511.974 343.992L511.867 343.908C511.246 343.455 510.481 343.192 509.729 343.288C507.722 343.538 507.208 345.567 507.077 347.298C506.898 349.816 507.352 352.764 507.818 355.365Z" fill="black"/>
<path opacity="0.2" d="M507.818 355.365C508.534 359.292 511.903 364.149 515.462 365.963C518.985 367.754 523.094 368.243 527.036 367.897C531.061 367.551 534.967 366.393 538.789 365.116C540.676 364.484 542.778 363.624 542.981 361.285C543.089 360.056 542.527 358.85 541.643 357.991C541.273 357.633 540.855 357.275 540.425 356.941C539.541 356.261 539.959 354.852 541.07 354.769C542.193 354.697 543.316 354.566 544.414 354.351C546.971 353.862 549.491 352.883 551.45 351.176C552.919 349.887 554.03 348.205 554.698 346.367C555.272 344.791 555.427 342.822 554.233 341.653C553.552 340.984 552.572 340.722 551.629 340.519C550.793 340.34 549.957 340.185 549.109 340.053C547.986 339.874 547.807 338.359 548.846 337.917L552.393 336.437C553.385 336.031 554.412 335.59 555.093 334.766C556.179 333.453 556.108 331.544 555.773 329.873C555.343 327.653 554.567 325.505 554.041 323.309C553.516 321.101 553.241 318.786 553.803 316.59C547.174 315.921 540.354 316.232 533.904 317.915C531.981 318.416 530.022 319.048 528.469 320.29C526.247 322.056 525.674 324.717 525.913 327.605C525.961 328.154 525.208 328.357 524.946 327.88L522.676 323.691C521.995 322.426 520.443 321.96 519.141 322.569C517.182 323.488 515.438 324.956 513.945 326.651C512.344 328.477 511.532 330.876 511.723 333.286C511.986 336.556 512.559 339.862 513.384 343.037C513.599 343.872 512.667 344.493 511.974 343.992L511.867 343.908C511.246 343.455 510.481 343.192 509.729 343.288C507.722 343.538 507.208 345.567 507.077 347.298C506.898 349.816 507.352 352.764 507.818 355.365Z" fill="white"/>
<path d="M518.376 365.426C518.4 365.283 519.774 358.636 523.727 349.923C523.727 349.768 523.799 349.625 523.918 349.518C524.038 349.243 524.169 348.981 524.289 348.706C523.154 338.299 519.033 331.031 518.985 330.959C518.83 330.697 518.926 330.363 519.188 330.219C519.451 330.076 519.786 330.16 519.929 330.422C519.965 330.494 523.763 337.177 525.16 346.916C529.687 337.834 536.925 327.212 548.081 319.454C548.332 319.287 548.667 319.347 548.846 319.586C549.013 319.836 548.953 320.17 548.714 320.349C537.2 328.357 529.938 339.445 525.531 348.658C534.525 344.278 544.08 346.009 544.498 346.092C544.797 346.152 544.988 346.438 544.928 346.725C544.88 346.952 544.713 347.119 544.498 347.155C544.426 347.166 544.367 347.166 544.295 347.155C544.187 347.131 533.772 345.245 524.766 350.269C520.849 358.886 519.487 365.486 519.451 365.629C519.403 365.856 519.236 366.023 519.021 366.059C518.949 366.071 518.878 366.071 518.806 366.059C518.508 365.999 518.316 365.713 518.376 365.426Z" fill="#F0F0F0"/>
<path d="M473.598 398.76L473.992 177.646C474.004 172.729 470.54 166.726 466.252 164.256L191.847 6.38418C189.721 5.15492 187.786 5.03557 186.377 5.82326L194.499 1.121V1.13294C195.92 0.237841 197.915 0.309449 200.137 1.58646L474.541 159.47C478.829 161.94 482.293 167.943 482.281 172.861L481.887 393.974C481.875 396.289 481.099 397.948 479.821 398.807H479.809C479.665 398.903 479.522 398.986 479.379 399.058L471.376 403.712C472.738 402.889 473.586 401.182 473.598 398.76Z" fill="#DFBB7F"/>
<path opacity="0.3" d="M194.499 1.12217C195.92 0.227068 197.915 0.298676 200.137 1.58762L474.541 159.471C476.93 160.844 479.056 163.314 480.466 166.071L472.176 170.857C470.755 168.1 468.641 165.641 466.252 164.269L191.847 6.38535C189.721 5.15608 187.786 5.03673 186.377 5.82442L194.499 1.12217Z" fill="white"/>
<path opacity="0.2" d="M482.27 172.849L481.876 393.963C481.864 396.278 481.088 397.937 479.81 398.796H479.798C479.654 398.892 479.511 398.975 479.368 399.047L471.365 403.701C472.739 402.878 473.587 401.171 473.587 398.76L473.981 177.647C473.993 175.463 473.3 173.052 472.165 170.844L480.455 166.059C481.601 168.267 482.282 170.665 482.27 172.849Z" fill="white"/>
<path d="M473.968 187.697L473.598 398.761C473.586 401.184 472.738 402.89 471.377 403.702C471.341 403.726 471.293 403.75 471.257 403.774C471.233 403.785 471.221 403.785 471.197 403.797C469.8 404.537 467.901 404.394 465.811 403.189L191.406 245.317C187.118 242.847 183.654 236.844 183.666 231.927L184.036 20.5879L473.968 187.697Z" fill="#DFBB7F"/>
<path opacity="0.2" d="M473.968 187.697L473.598 398.761C473.586 401.184 472.738 402.89 471.377 403.702C471.341 403.726 471.293 403.75 471.257 403.774C471.233 403.785 471.221 403.785 471.197 403.797C469.8 404.537 467.901 404.394 465.811 403.189L191.406 245.317C187.118 242.847 183.654 236.844 183.666 231.927L184.036 20.5879L473.968 187.697Z" fill="black"/>
<path d="M218.172 238.753L218.482 63.3496L454.487 198.915L454.176 374.068L218.172 238.753Z" fill="white"/>
<path d="M315.889 223.918L316.02 133.238L420.651 193.341L420.519 283.913L315.889 223.918Z" fill="#455A64"/>
<path d="M184.061 10.8126C184.073 8.38986 184.921 6.68321 186.295 5.87165C186.306 5.85972 186.318 5.84778 186.33 5.84778C186.342 5.83585 186.366 5.82392 186.378 5.81198C187.788 5.02429 189.723 5.14364 191.849 6.37291L466.253 164.256C470.541 166.727 474.005 172.73 473.993 177.647L473.969 187.696L184.037 20.5871L184.061 10.8126Z" fill="#DFBB7F"/>
<path opacity="0.3" d="M184.061 10.8126C184.073 8.38986 184.921 6.68321 186.295 5.87165C186.306 5.85972 186.318 5.84778 186.33 5.84778C186.342 5.83585 186.366 5.82392 186.378 5.81198C187.788 5.02429 189.723 5.14364 191.849 6.37291L466.253 164.256C470.541 166.727 474.005 172.73 473.993 177.647L473.969 187.696L184.037 20.5871L184.061 10.8126Z" fill="black"/>
<g opacity="0.39">
<g opacity="0.39">
<path opacity="0.39" d="M204.605 21.4943C203.434 20.8259 202.49 21.363 202.479 22.6997C202.479 24.0363 203.422 25.6714 204.593 26.3517C205.763 27.02 206.707 26.483 206.719 25.1463C206.719 23.8096 205.775 22.1745 204.605 21.4943Z" fill="white"/>
</g>
<g opacity="0.39">
<path opacity="0.39" d="M198.823 18.1642C197.653 17.4959 196.709 18.0329 196.697 19.3696C196.697 20.7063 197.641 22.3413 198.811 23.0216C199.982 23.6899 200.925 23.1529 200.937 21.8162C200.937 20.4676 199.994 18.8325 198.823 18.1642Z" fill="white"/>
</g>
<g opacity="0.39">
<path opacity="0.39" d="M193.042 14.8224C191.872 14.1541 190.928 14.6911 190.916 16.0278C190.916 17.3645 191.86 18.9995 193.03 19.6798C194.201 20.3481 195.144 19.8111 195.156 18.4744C195.156 17.1377 194.213 15.5027 193.042 14.8224Z" fill="white"/>
</g>
</g>
<path d="M203.745 93.5801L203.709 104.596L203.745 93.5801Z" fill="white"/>
<path d="M203.697 108.833L194.105 103.295L203.697 108.833L203.673 119.848L203.697 108.833Z" fill="white"/>
<path d="M194.07 118.535L203.661 124.073L194.07 118.535Z" fill="white"/>
<path d="M203.493 179.508L193.902 173.971L203.493 179.508Z" fill="white"/>
<path d="M194.201 68.5762L203.792 74.1138L194.201 68.5762Z" fill="white"/>
<path d="M198.25 75.1406L203.78 78.3391L203.756 89.3548L203.78 78.3391L198.25 75.1406Z" fill="white"/>
<path d="M194.166 83.8164L203.757 89.3541L194.166 83.8164Z" fill="white"/>
<path d="M194.117 99.0703L203.708 104.596L194.117 99.0703Z" fill="white"/>
<path d="M197.916 191.562L203.458 194.749L203.422 205.765L203.458 194.749L197.916 191.562Z" fill="white"/>
<path d="M193.998 143.49L203.589 149.016L193.998 143.49Z" fill="white"/>
<path d="M193.951 158.73L203.542 164.268L193.951 158.73Z" fill="white"/>
<path d="M194.153 88.0547L203.744 93.5804L203.708 104.596L194.117 99.0704L194.153 88.0547Z" fill="white"/>
<path d="M203.673 119.848L194.082 114.311L194.106 103.295L203.697 108.833L203.673 119.848Z" fill="white"/>
<path d="M193.95 158.73L203.541 164.268L203.505 175.284L193.914 169.746L193.95 158.73Z" fill="white"/>
<path d="M203.47 190.524L193.879 184.986L193.903 173.971L203.494 179.508L203.47 190.524Z" fill="white"/>
<path d="M193.999 143.49L203.59 149.016L203.554 160.032L193.963 154.506L193.999 143.49Z" fill="white"/>
<path d="M190.689 217.247L206.468 226.353L206.695 147.274L190.916 138.168L190.689 217.247ZM193.902 173.972L203.494 179.51L203.458 190.525L193.867 184.988L193.902 173.972ZM203.553 160.032L193.962 154.495L193.998 143.479L203.589 149.017L203.553 160.032ZM203.506 175.285L193.914 169.747L193.95 158.731L203.541 164.269L203.506 175.285ZM203.422 205.766L193.831 200.228L193.867 189.212L197.916 191.552L203.458 194.75L203.422 205.766ZM193.783 215.469L193.819 204.453L203.41 209.991L203.374 221.006L193.783 215.469Z" fill="#DFBB7F"/>
<path d="M190.928 131.317L206.706 140.424L206.933 61.3327L191.155 52.2266L190.928 131.317ZM203.792 74.1147L194.2 68.577L194.236 57.5614L203.827 63.099L203.792 74.1147ZM203.756 89.3552L194.165 83.8176L194.2 72.8019L198.249 75.1411L203.792 78.3396L203.756 89.3552ZM203.708 104.596L194.117 99.0581L194.153 88.0424L203.744 93.5801L203.708 104.596ZM203.672 119.848L194.081 114.311L194.117 103.295L203.708 108.833L203.672 119.848ZM203.624 135.089L194.033 129.551L194.069 118.535L203.66 124.073L203.624 135.089Z" fill="#DFBB7F"/>
<path d="M190.689 217.247L206.468 226.353L206.695 147.274L190.916 138.168L190.689 217.247ZM193.902 173.972L203.494 179.51L203.458 190.525L193.867 184.988L193.902 173.972ZM203.553 160.032L193.962 154.495L193.998 143.479L203.589 149.017L203.553 160.032ZM203.506 175.285L193.914 169.747L193.95 158.731L203.541 164.269L203.506 175.285ZM203.422 205.766L193.831 200.228L193.867 189.212L197.916 191.552L203.458 194.75L203.422 205.766ZM193.783 215.469L193.819 204.453L203.41 209.991L203.374 221.006L193.783 215.469Z" fill="#455A64"/>
<path d="M190.928 131.317L206.706 140.424L206.933 61.3327L191.155 52.2266L190.928 131.317ZM203.792 74.1147L194.2 68.577L194.236 57.5614L203.827 63.099L203.792 74.1147ZM203.756 89.3552L194.165 83.8176L194.2 72.8019L198.249 75.1411L203.792 78.3396L203.756 89.3552ZM203.708 104.596L194.117 99.0581L194.153 88.0424L203.744 93.5801L203.708 104.596ZM203.672 119.848L194.081 114.311L194.117 103.295L203.708 108.833L203.672 119.848ZM203.624 135.089L194.033 129.551L194.069 118.535L203.66 124.073L203.624 135.089Z" fill="#455A64"/>
<path d="M194.166 83.8165L194.19 72.8008L198.251 75.14L203.781 78.3385L203.757 89.3541L194.166 83.8165Z" fill="white"/>
<path d="M191.156 52.2262L191.18 46.0918L206.958 55.186L206.934 61.3323L191.156 52.2262Z" fill="white"/>
<path d="M194.201 68.5762L194.237 57.5605L203.828 63.0982L203.792 74.1139L194.201 68.5762Z" fill="white"/>
<path d="M194.069 118.535L203.66 124.073L203.624 135.089L194.033 129.551L194.069 118.535Z" fill="white"/>
<path d="M193.83 200.228L193.866 189.225L197.915 191.564L203.457 194.75L203.421 205.766L193.83 200.228Z" fill="white"/>
<path d="M203.41 209.991L203.386 221.006L193.783 215.469L193.819 204.453L203.41 209.991Z" fill="white"/>
<path d="M396.392 287.184L396.368 292.196L315.578 244.911L315.602 239.887L396.392 287.184Z" fill="#37474F"/>
<path d="M372.002 305.229L371.99 310.265L315.494 276.991L315.506 271.955L372.002 305.229Z" fill="#37474F"/>
<path d="M357.787 280.273L357.776 285.31L315.541 260.259L315.553 255.223L357.787 280.273Z" fill="#37474F"/>
<path d="M396.32 311.578L396.308 316.603L315.518 269.317L315.53 264.293L396.32 311.578Z" fill="#37474F"/>
<path d="M396.367 294.846L396.355 299.87L315.564 252.573L315.576 247.561L396.367 294.846Z" fill="#37474F"/>
<path d="M244.126 216.053C249.466 219.132 253.777 226.603 253.765 232.738C253.753 238.872 249.406 241.343 244.067 238.264C238.728 235.184 234.404 227.713 234.428 221.579C234.44 215.445 238.775 212.974 244.126 216.053Z" fill="#E0E0E0"/>
<path d="M244.197 187.911C249.536 190.99 253.848 198.461 253.836 204.595C253.824 210.73 249.476 213.2 244.137 210.121C238.798 207.042 234.486 199.571 234.498 193.436C234.51 187.302 238.858 184.832 244.197 187.911Z" fill="#E0E0E0"/>
<path d="M270.476 203.067C275.815 206.146 280.127 213.617 280.115 219.752C280.103 225.886 275.755 228.356 270.416 225.277C265.077 222.198 260.765 214.727 260.777 208.593C260.789 202.458 265.137 199.988 270.476 203.067Z" fill="#E0E0E0"/>
<path d="M296.669 246.366C302.008 249.445 306.32 256.916 306.308 263.05C306.296 269.185 301.949 271.655 296.61 268.576C291.271 265.497 286.947 258.026 286.971 251.891C286.983 245.757 291.318 243.287 296.669 246.366Z" fill="#E0E0E0"/>
<path d="M303.547 241.107C307.317 238.918 307.308 231.873 303.526 225.37C299.745 218.868 293.623 215.371 289.853 217.56C286.083 219.749 286.093 226.795 289.874 233.297C293.656 239.799 299.777 243.296 303.547 241.107Z" fill="#E0E0E0"/>
<path d="M270.392 231.209C275.731 234.289 280.043 241.76 280.031 247.894C280.019 254.029 275.671 256.499 270.332 253.42C264.993 250.341 260.681 242.87 260.693 236.735C260.717 230.601 265.053 228.13 270.392 231.209Z" fill="#E0E0E0"/>
<path d="M501.811 126.531L398.279 66.7982C397.467 66.3208 396.727 66.285 396.189 66.5953L388.449 72.1449C388.987 71.8465 389.715 71.8943 390.527 72.3597L494.059 132.093C495.696 133.035 497.01 135.327 497.01 137.201L496.603 229.563C496.603 230.47 496.281 231.102 495.779 231.425L503.615 225.815L503.603 225.803C504.057 225.469 504.343 224.861 504.355 224.001L504.761 131.639C504.761 129.753 503.447 127.462 501.811 126.531Z" fill="#DFBB7F"/>
<path d="M496.591 229.551L496.997 137.189C496.997 135.315 495.683 133.023 494.047 132.081L390.515 72.3477C389.703 71.8822 388.974 71.8345 388.436 72.1328C387.887 72.4431 387.553 73.0995 387.553 74.0424L387.146 166.405C387.146 168.278 388.46 170.57 390.097 171.513L493.629 231.246C494.477 231.735 495.229 231.759 495.767 231.413C496.28 231.09 496.591 230.458 496.591 229.551Z" fill="#455A64"/>
<g opacity="0.3">
<path opacity="0.3" d="M403.282 140.017L403.258 150.973L393.715 145.472L393.751 134.516L403.282 140.017Z" fill="black"/>
</g>
<g opacity="0.3">
<path opacity="0.3" d="M403.282 160.521L403.258 171.465L393.715 165.964L393.751 155.02L403.282 160.521Z" fill="black"/>
</g>
<path d="M412.825 166.023L412.801 176.967L403.258 171.466L403.294 160.521L412.825 166.023Z" fill="white"/>
<g opacity="0.5">
<path opacity="0.5" d="M465.679 179.354L465.667 183.627L408.908 150.89L408.92 146.617L465.679 179.354Z" fill="white"/>
</g>
<g opacity="0.3">
<path opacity="0.3" d="M403.329 123.226L403.305 134.171L393.762 128.669L393.798 117.725L403.329 123.226Z" fill="black"/>
</g>
<g opacity="0.5">
<path opacity="0.5" d="M465.774 145.758L465.763 150.043L409.004 117.294L409.016 113.01L465.774 145.758Z" fill="white"/>
</g>
<g opacity="0.5">
<path opacity="0.5" d="M465.726 162.563L465.714 166.835L408.955 134.099L408.967 129.826L465.726 162.563Z" fill="white"/>
</g>
<g opacity="0.3">
<path opacity="0.3" d="M403.378 106.422L403.354 117.378L393.811 111.876L393.846 100.92L403.378 106.422Z" fill="black"/>
</g>
<path d="M490.427 156.63L490.391 167.598L470.803 156.296L470.839 145.328L490.427 156.63Z" fill="white"/>
<path d="M490.331 190.24L490.295 201.184L470.707 189.882L470.743 178.938L490.331 190.24Z" fill="white"/>
<path d="M490.378 173.435L490.342 184.391L470.754 173.089L470.79 162.133L490.378 173.435Z" fill="white"/>
<g opacity="0.3">
<path opacity="0.3" d="M494.047 132.069C495.683 133.012 496.997 135.303 496.997 137.177L496.973 146.009L433.311 109.286L433.346 97.0527L494.047 132.069Z" fill="black"/>
</g>
<path d="M427.59 99.2006L392.092 78.7207V82.7785L427.578 103.246L427.59 99.2006Z" fill="white"/>
<path d="M485.279 130.076V131.222L492.434 135.351V134.206L485.279 130.076Z" fill="white"/>
<path d="M485.268 137.081L492.41 141.21L492.422 140.077L485.268 135.947V137.081Z" fill="white"/>
<path d="M485.279 133.179L492.422 137.308L492.434 136.163L485.279 132.033V133.179Z" fill="white"/>
<path d="M485.268 135.124L492.422 139.253V138.12L485.268 133.99V135.124Z" fill="white"/>
<path d="M501.811 126.531L398.279 66.7982C397.467 66.3208 396.727 66.285 396.189 66.5953L388.449 72.1449C388.987 71.8465 389.715 71.8943 390.527 72.3597L494.059 132.093C494.967 132.618 495.779 133.573 496.317 134.635L504.451 129.968C503.961 128.548 502.97 127.199 501.811 126.531Z" fill="#37474F"/>
<path d="M496.303 134.61C496.733 135.445 496.996 136.352 496.996 137.176L496.59 229.538C496.59 230.445 496.267 231.078 495.766 231.4L503.601 225.791L503.589 225.779C504.043 225.445 504.33 224.836 504.341 223.977L504.748 131.614C504.748 131.077 504.628 130.493 504.437 129.932L496.303 134.61Z" fill="#263238"/>
<path d="M341.915 60.1266L238.383 0.405603C237.571 -0.0717826 236.83 -0.107587 236.293 0.202714L228.553 5.75232C229.09 5.45396 229.819 5.5017 230.631 5.96715L334.163 65.7C335.799 66.6429 337.113 68.9343 337.113 70.8081L336.707 113.045C336.707 113.952 336.384 114.584 335.883 114.907L343.718 109.297L343.706 109.285C344.16 108.951 344.447 108.343 344.459 107.483L344.865 65.2465C344.865 63.3609 343.551 61.0694 341.915 60.1266Z" fill="#DFBB7F"/>
<path d="M336.694 113.033L337.1 70.796C337.1 68.9223 335.786 66.6308 334.15 65.688L230.618 5.95509C229.806 5.48963 229.077 5.4419 228.54 5.74026C227.991 6.05056 227.656 6.70697 227.656 7.6498L227.25 49.8865C227.25 51.7603 228.564 54.0517 230.2 54.9945L333.732 114.727C334.58 115.217 335.333 115.241 335.87 114.895C336.384 114.584 336.694 113.94 336.694 113.033Z" fill="#455A64"/>
<g opacity="0.5">
<path opacity="0.5" d="M247.208 39.8734L247.16 54.9827L234.021 47.3922L234.057 32.2949L247.208 39.8734Z" fill="white"/>
</g>
<g opacity="0.5">
<path opacity="0.5" d="M267.704 51.2113L267.656 66.3206L254.518 58.7421L254.553 43.6328L267.704 51.2113Z" fill="white"/>
</g>
<g opacity="0.5">
<path opacity="0.5" d="M288.188 62.5609L288.152 77.6582L275.002 70.0798L275.05 54.9824L288.188 62.5609Z" fill="white"/>
</g>
<g opacity="0.5">
<path opacity="0.5" d="M308.684 73.8988L308.649 89.0081L295.498 81.4176L295.546 66.3203L308.684 73.8988Z" fill="white"/>
</g>
<g opacity="0.5">
<path opacity="0.5" d="M329.18 85.2367L329.133 100.346L315.994 92.7675L316.042 77.6582L329.18 85.2367Z" fill="white"/>
</g>
<g opacity="0.3">
<path opacity="0.3" d="M334.15 65.6764C335.786 66.6192 337.1 68.9107 337.1 70.7844L337.076 79.6161L273.414 42.8932L273.45 30.6602L334.15 65.6764Z" fill="black"/>
</g>
<path d="M267.705 32.808L232.207 12.3281L232.195 16.3859L267.693 36.8538L267.705 32.808Z" fill="white"/>
<path d="M325.383 63.6836V64.8293L332.537 68.9587V67.813L325.383 63.6836Z" fill="white"/>
<path d="M325.371 70.6885L332.526 74.8059V73.6841L325.371 69.5547V70.6885Z" fill="white"/>
<path d="M325.383 66.7863L332.537 70.9038V69.77L325.383 65.6406V66.7863Z" fill="white"/>
<path d="M325.371 68.7314L332.526 72.8608V71.727L325.383 67.5977L325.371 68.7314Z" fill="white"/>
<path d="M341.915 60.1266L238.383 0.405603C237.571 -0.0717826 236.83 -0.107587 236.293 0.202714L228.553 5.75233C229.09 5.45396 229.819 5.5017 230.631 5.96715L334.163 65.7001C335.071 66.2252 335.883 67.18 336.42 68.2421L344.554 63.5757C344.065 62.1555 343.073 60.8069 341.915 60.1266Z" fill="#37474F"/>
<path d="M336.407 68.2174C336.837 69.0529 337.099 69.9599 337.099 70.7834L336.693 113.02C336.693 113.927 336.371 114.56 335.869 114.882L343.705 109.273L343.693 109.261C344.146 108.927 344.433 108.318 344.445 107.459L344.851 65.2218C344.851 64.6848 344.732 64.1 344.541 63.5391L336.407 68.2174Z" fill="#263238"/>
<path d="M501.811 246.295L398.279 186.562C397.467 186.084 396.727 186.049 396.189 186.359L388.449 191.909C388.987 191.61 389.715 191.658 390.527 192.123L494.059 251.856C495.696 252.799 497.01 255.091 497.01 256.964L496.603 398.294C496.603 399.201 496.281 399.834 495.779 400.156L503.615 394.547L503.603 394.535C504.057 394.201 504.343 393.592 504.355 392.733L504.761 251.403C504.761 249.529 503.447 247.238 501.811 246.295Z" fill="#DFBB7F"/>
<path d="M496.591 398.294L496.997 256.964C496.997 255.09 495.683 252.799 494.047 251.856L390.515 192.123C389.703 191.658 388.974 191.61 388.436 191.908C387.887 192.219 387.553 192.875 387.553 193.818L387.146 335.148C387.146 337.022 388.46 339.313 390.097 340.256L493.629 399.989C494.477 400.478 495.229 400.502 495.767 400.156C496.28 399.834 496.591 399.201 496.591 398.294Z" fill="#DFBB7F"/>
<g opacity="0.3">
<path opacity="0.3" d="M494.047 251.844C495.683 252.787 496.997 255.079 496.997 256.952L496.973 265.784L433.311 229.061L433.346 216.828L494.047 251.844Z" fill="black"/>
</g>
<path d="M399.114 291.98L391.852 287.791L391.828 296.611L399.09 300.8L399.114 291.98Z" fill="white"/>
<path d="M399.149 279.496L391.887 275.307L391.863 284.126L399.125 288.327L399.149 279.496Z" fill="white"/>
<path d="M427.59 218.976L392.092 198.496V202.542L427.578 223.022L427.59 218.976Z" fill="white"/>
<path d="M489.472 288.328L488.779 287.135L487.466 287.875L486.164 285.631L485.459 286.013L487.466 289.474L489.472 288.328Z" fill="white"/>
<path d="M399.21 261.093L391.936 256.904L391.912 265.724L399.186 269.925L399.21 261.093Z" fill="white"/>
<path d="M399.245 248.609L391.971 244.42L391.947 253.252L399.209 257.441L399.245 248.609Z" fill="white"/>
<path d="M392.02 228.236L391.996 237.068L482.58 289.33L482.604 280.498L392.02 228.236Z" fill="#DFBB7F"/>
<path d="M482.58 289.331L492.327 294.953L492.35 286.133L482.604 280.512L482.58 289.331ZM486.163 285.632L487.465 287.887L488.779 287.147L489.484 288.341L487.477 289.487L485.483 286.026L486.163 285.632Z" fill="#DFBB7F"/>
<path d="M392.055 215.098L392.031 223.917L482.616 276.179L482.64 267.359L392.055 215.098Z" fill="#DFBB7F"/>
<path d="M489.507 275.188L488.815 273.983L487.501 274.722L486.199 272.467L485.494 272.873L487.501 276.322L489.507 275.188Z" fill="white"/>
<path d="M482.615 276.179L492.362 281.8L492.386 272.981L482.639 267.359L482.615 276.179ZM486.198 272.467L487.5 274.723L488.814 273.983L489.519 275.189L487.512 276.322L485.518 272.873L486.198 272.467Z" fill="#DFBB7F"/>
<path d="M433.179 272.061L432.487 270.855L431.173 271.607L429.871 269.352L429.166 269.745L431.173 273.206L433.179 272.061Z" fill="white"/>
<path d="M436.034 278.685L436.057 269.865L426.311 264.244L426.287 273.064L436.034 278.685ZM429.87 269.352L431.172 271.608L432.486 270.856L433.191 272.061L431.184 273.207L429.19 269.746L429.87 269.352Z" fill="#DFBB7F"/>
<path d="M402.877 272.062L426.252 285.536L426.276 276.717L402.901 263.23L402.877 272.062Z" fill="#DFBB7F"/>
<path d="M426.311 264.232L402.936 250.746L402.912 259.578L426.287 273.064L426.311 264.232Z" fill="#DFBB7F"/>
<path d="M431.137 285.691L433.144 284.545L432.451 283.34L431.137 284.08L429.835 281.836L429.143 282.23L431.137 285.691Z" fill="white"/>
<path d="M426.252 285.535L435.998 291.156L436.022 282.336L426.276 276.715L426.252 285.535ZM429.835 281.835L431.137 284.09L432.451 283.35L433.144 284.556L431.137 285.702L429.142 282.241L429.835 281.835Z" fill="#DFBB7F"/>
<path d="M482.496 317.986L492.243 323.607L492.266 314.787L482.52 309.166L482.496 317.986ZM485.375 314.68L486.079 314.274L487.381 316.53L488.695 315.79L489.388 316.995L487.381 318.141L485.375 314.68Z" fill="#DFBB7F"/>
<path d="M482.449 336.388L492.196 342.009L492.22 333.19L482.473 327.568L482.449 336.388ZM486.032 332.688L487.334 334.944L488.648 334.204L489.353 335.397L487.346 336.543L485.352 333.082L486.032 332.688Z" fill="#DFBB7F"/>
<path d="M482.412 348.872L492.158 354.494L492.182 345.674L482.436 340.053L482.412 348.872ZM485.995 345.161L487.297 347.416L488.611 346.665L489.304 347.87L487.297 349.016L485.303 345.555L485.995 345.161Z" fill="#DFBB7F"/>
<path d="M459.061 326.566L459.037 335.386L482.412 348.872L482.436 340.041L459.061 326.566Z" fill="#DFBB7F"/>
<path d="M459.098 314.084L459.074 322.904L482.449 336.39L482.473 327.57L459.098 314.084Z" fill="#DFBB7F"/>
<path d="M459.145 295.68L459.121 304.499L482.496 317.986L482.52 309.166L459.145 295.68Z" fill="#DFBB7F"/>
<path d="M459.182 283.195L459.158 292.015L482.533 305.501L482.557 296.681L459.182 283.195Z" fill="#DFBB7F"/>
<path d="M489.423 304.512L488.731 303.306L487.417 304.058L486.115 301.803L485.41 302.197L487.417 305.658L489.423 304.512Z" fill="white"/>
<path d="M482.555 296.682L482.531 305.501L492.278 311.123L492.302 302.303L482.555 296.682ZM486.114 301.802L487.416 304.057L488.73 303.305L489.423 304.511L487.416 305.656L485.422 302.195L486.114 301.802Z" fill="#DFBB7F"/>
<path d="M448.156 298.175L455.43 302.364L455.454 293.545L448.18 289.355L448.156 298.175Z" fill="white"/>
<path d="M455.491 281.06L448.217 276.871L448.193 285.691L455.455 289.892L455.491 281.06Z" fill="white"/>
<path d="M487.382 318.14L489.388 316.995L488.695 315.777L487.382 316.529L486.08 314.273L485.375 314.679L487.382 318.14Z" fill="white"/>
<path d="M402.828 290.453L426.203 303.939L426.227 295.119L402.852 281.633L402.828 290.453Z" fill="#DFBB7F"/>
<path d="M426.203 303.939L435.95 309.56L435.973 300.74L426.227 295.119L426.203 303.939ZM429.786 300.239L431.088 302.495L432.402 301.755L433.107 302.948L431.1 304.094L429.106 300.633L429.786 300.239Z" fill="#DFBB7F"/>
<path d="M431.089 304.093L433.095 302.947L432.391 301.742L431.089 302.494L429.787 300.238L429.082 300.632L431.089 304.093Z" fill="white"/>
<path d="M431.054 314.979L429.752 312.711L429.047 313.117L431.054 316.578L433.06 315.432L432.355 314.215L431.054 314.979Z" fill="white"/>
<path d="M426.168 316.423L435.914 322.044L435.938 313.225L426.192 307.604L426.168 316.423ZM429.751 312.712L431.053 314.967L432.367 314.215L433.072 315.421L431.065 316.566L429.07 313.105L429.751 312.712Z" fill="#DFBB7F"/>
<path d="M411.739 325.671L411.762 316.851L404.5 312.662L404.477 321.482L411.739 325.671Z" fill="white"/>
<path d="M402.793 302.937L426.168 316.423L426.192 307.603L402.817 294.117L402.793 302.937Z" fill="#DFBB7F"/>
<path d="M426.084 344.563L391.745 324.752L391.721 333.572L426.06 353.383L426.084 344.563Z" fill="#DFBB7F"/>
<path d="M430.206 352.273L430.946 353.539L432.953 352.393L432.26 351.187L430.946 351.939L429.644 349.684L428.939 350.077L430.206 352.273Z" fill="white"/>
<path d="M426.084 344.564L426.061 353.384L435.807 359.005L435.831 350.186L426.084 344.564ZM429.644 349.684L430.946 351.94L432.26 351.188L432.964 352.394L430.958 353.539L430.229 352.274L428.963 350.078L429.644 349.684Z" fill="#DFBB7F"/>
<path d="M482.328 377.015L447.989 357.203L447.965 366.023L482.304 385.834L482.328 377.015Z" fill="#DFBB7F"/>
<path opacity="0.3" d="M392.02 228.236L391.996 237.068L482.58 289.33L482.604 280.498L392.02 228.236Z" fill="black"/>
<path opacity="0.3" d="M392.055 215.098L392.031 223.917L482.616 276.179L482.64 267.359L392.055 215.098Z" fill="black"/>
<path opacity="0.3" d="M402.877 272.062L426.252 285.536L426.276 276.717L402.901 263.23L402.877 272.062Z" fill="black"/>
<path opacity="0.3" d="M426.311 264.232L402.936 250.746L402.912 259.578L426.287 273.064L426.311 264.232Z" fill="black"/>
<path opacity="0.3" d="M459.061 326.566L459.037 335.386L482.412 348.872L482.436 340.041L459.061 326.566Z" fill="black"/>
<path opacity="0.3" d="M459.098 314.084L459.074 322.904L482.449 336.39L482.473 327.57L459.098 314.084Z" fill="black"/>
<path opacity="0.3" d="M459.145 295.68L459.121 304.499L482.496 317.986L482.52 309.166L459.145 295.68Z" fill="black"/>
<path opacity="0.3" d="M459.182 283.195L459.158 292.015L482.533 305.501L482.557 296.681L459.182 283.195Z" fill="black"/>
<path opacity="0.3" d="M402.828 290.453L426.203 303.939L426.227 295.119L402.852 281.633L402.828 290.453Z" fill="black"/>
<path opacity="0.3" d="M402.793 302.937L426.168 316.423L426.192 307.603L402.817 294.117L402.793 302.937Z" fill="black"/>
<path opacity="0.3" d="M426.084 344.563L391.745 324.752L391.721 333.572L426.06 353.383L426.084 344.563Z" fill="black"/>
<path opacity="0.3" d="M482.328 377.015L447.989 357.203L447.965 366.023L482.304 385.834L482.328 377.015Z" fill="black"/>
<path d="M482.329 377.014L482.305 385.833L492.051 391.455L492.075 382.635L482.329 377.014ZM485.888 382.122L486.366 382.945L487.19 384.377L488.504 383.625L489.196 384.831L487.19 385.977L485.195 382.516L485.888 382.122Z" fill="#DFBB7F"/>
<path opacity="0.4" d="M482.58 289.331L492.327 294.953L492.35 286.133L482.604 280.512L482.58 289.331ZM486.163 285.632L487.465 287.887L488.779 287.147L489.484 288.341L487.477 289.487L485.483 286.026L486.163 285.632Z" fill="black"/>
<path opacity="0.4" d="M482.615 276.179L492.362 281.8L492.386 272.981L482.639 267.359L482.615 276.179ZM486.198 272.467L487.5 274.723L488.814 273.983L489.519 275.189L487.512 276.322L485.518 272.873L486.198 272.467Z" fill="black"/>
<path opacity="0.4" d="M436.034 278.685L436.057 269.865L426.311 264.244L426.287 273.064L436.034 278.685ZM429.87 269.352L431.172 271.608L432.486 270.856L433.191 272.061L431.184 273.207L429.19 269.746L429.87 269.352Z" fill="black"/>
<path opacity="0.4" d="M426.252 285.535L435.998 291.156L436.022 282.336L426.276 276.715L426.252 285.535ZM429.835 281.835L431.137 284.09L432.451 283.35L433.144 284.556L431.137 285.702L429.142 282.241L429.835 281.835Z" fill="black"/>
<path opacity="0.4" d="M482.496 317.986L492.243 323.607L492.266 314.787L482.52 309.166L482.496 317.986ZM485.375 314.68L486.079 314.274L487.381 316.53L488.695 315.79L489.388 316.995L487.381 318.141L485.375 314.68Z" fill="black"/>
<path opacity="0.4" d="M482.449 336.388L492.196 342.009L492.22 333.19L482.473 327.568L482.449 336.388ZM486.032 332.688L487.334 334.944L488.648 334.204L489.353 335.397L487.346 336.543L485.352 333.082L486.032 332.688Z" fill="black"/>
<path opacity="0.4" d="M482.412 348.872L492.158 354.494L492.182 345.674L482.436 340.053L482.412 348.872ZM485.995 345.161L487.297 347.416L488.611 346.665L489.304 347.87L487.297 349.016L485.303 345.555L485.995 345.161Z" fill="black"/>
<path opacity="0.4" d="M482.555 296.682L482.531 305.501L492.278 311.123L492.302 302.303L482.555 296.682ZM486.114 301.802L487.416 304.057L488.73 303.305L489.423 304.511L487.416 305.656L485.422 302.195L486.114 301.802Z" fill="black"/>
<path opacity="0.4" d="M426.203 303.939L435.95 309.56L435.973 300.74L426.227 295.119L426.203 303.939ZM429.786 300.239L431.088 302.495L432.402 301.755L433.107 302.948L431.1 304.094L429.106 300.633L429.786 300.239Z" fill="black"/>
<path opacity="0.4" d="M426.168 316.423L435.914 322.044L435.938 313.225L426.192 307.604L426.168 316.423ZM429.751 312.712L431.053 314.967L432.367 314.215L433.072 315.421L431.065 316.566L429.07 313.105L429.751 312.712Z" fill="black"/>
<path opacity="0.4" d="M426.084 344.564L426.061 353.384L435.807 359.005L435.831 350.186L426.084 344.564ZM429.644 349.684L430.946 351.94L432.26 351.188L432.964 352.394L430.958 353.539L430.229 352.274L428.963 350.078L429.644 349.684Z" fill="black"/>
<path opacity="0.4" d="M482.329 377.014L482.305 385.833L492.051 391.455L492.075 382.635L482.329 377.014ZM485.888 382.122L486.366 382.945L487.19 384.377L488.504 383.625L489.196 384.831L487.19 385.977L485.195 382.516L485.888 382.122Z" fill="black"/>
<path d="M489.197 384.844L488.504 383.639L487.19 384.391L486.366 382.958L485.888 382.123L485.184 382.529L487.19 385.99L489.197 384.844Z" fill="white"/>
<path d="M448.072 329.062L455.334 333.251L455.358 324.431L448.096 320.23L448.072 329.062Z" fill="white"/>
<path d="M448.109 316.578L455.371 320.767L455.395 311.947L448.133 307.758L448.109 316.578Z" fill="white"/>
<path d="M489.339 335.399L488.635 334.193L487.333 334.945L486.031 332.689L485.326 333.083L487.321 336.544L489.339 335.399Z" fill="white"/>
<path d="M489.304 347.869L488.6 346.664L487.298 347.416L485.996 345.16L485.291 345.566L487.298 349.027L489.304 347.869Z" fill="white"/>
<path d="M399.067 309.525L391.805 305.336L391.781 314.156L399.043 318.345L399.067 309.525Z" fill="white"/>
<path d="M433.07 337.976L440.332 342.165L440.356 333.345L433.094 329.156L433.07 337.976Z" fill="white"/>
<path d="M445.756 345.304L453.03 349.493L453.054 340.674L445.78 336.473L445.756 345.304Z" fill="white"/>
<path d="M472.165 351.689L472.141 360.521L479.403 364.71L479.438 355.89L472.165 351.689Z" fill="white"/>
<path d="M484.826 367.837L492.112 372.038L492.136 363.219L484.85 359.018L484.826 367.837Z" fill="white"/>
<path d="M485.279 249.852V250.997L492.434 255.115V253.981L485.279 249.852Z" fill="white"/>
<path d="M485.268 256.856L492.41 260.974L492.422 259.852L485.268 255.723V256.856Z" fill="white"/>
<path d="M485.279 252.954L492.422 257.072L492.434 255.938L485.279 251.809V252.954Z" fill="white"/>
<path d="M485.268 254.899L492.422 259.017V257.895L485.268 253.766V254.899Z" fill="white"/>
<path opacity="0.3" d="M501.811 246.295L398.279 186.562C397.467 186.084 396.727 186.049 396.189 186.359L388.449 191.909C388.987 191.61 389.715 191.658 390.527 192.123L494.059 251.856C494.967 252.381 495.779 253.336 496.317 254.398L504.451 249.732C503.961 248.324 502.97 246.963 501.811 246.295Z" fill="white"/>
<path opacity="0.2" d="M496.303 254.387C496.733 255.223 496.996 256.13 496.996 256.953L496.59 398.283C496.59 399.19 496.267 399.823 495.766 400.145L503.601 394.536L503.589 394.524C504.043 394.19 504.33 393.581 504.341 392.722L504.748 251.392C504.748 250.855 504.628 250.27 504.437 249.709L496.303 254.387Z" fill="white"/>
<path d="M191.893 131.197C191.893 131.197 192.753 127.581 190.484 127.104C190.484 127.104 192.431 123.01 189.97 122.186C187.51 121.363 184.404 129.598 180.797 132.951C180.14 133.691 175.924 137.499 175.363 136.269L175.351 136.281L169.558 138.513C169.223 140.244 168.829 141.986 167.921 143.144C161.722 152.596 154.627 157.155 149.336 163.886L144.188 158.897L134.418 172.467L144.009 179.64C148.906 183.304 155.882 182.122 159.298 177.05L176.951 150.83C177.715 149.708 178.707 148.765 179.877 148.073C182.684 146.414 188.083 143.048 190.09 140.59C192.849 137.2 193.231 133.56 191.893 131.197Z" fill="#FFC3C2"/>
<path d="M114.316 135.768C124.099 135.339 137.369 151.2 144.846 158.671C144.272 167.801 134.43 173.804 134.43 173.804C123.31 166.202 114.316 158.098 114.316 158.098V135.768Z" fill="#DFBB7F"/>
<path opacity="0.3" d="M114.316 135.768C124.099 135.339 137.369 151.2 144.846 158.671C144.272 167.801 134.43 173.804 134.43 173.804C123.31 166.202 114.316 158.098 114.316 158.098V135.768Z" fill="white"/>
<path d="M203.003 67.0723L233.413 132.164L180.154 146.581L149.732 81.4893L203.003 67.0723Z" fill="#DFBB7F"/>
<g opacity="0.3">
<path opacity="0.3" d="M203.003 67.0723L233.413 132.164L180.154 146.581L149.732 81.4893L203.003 67.0723Z" fill="white"/>
</g>
<path d="M219.033 115.658L219.797 117.293C219.809 117.986 219.558 118.594 219.069 119.107C218.579 119.633 217.994 119.991 217.313 120.17C216.345 120.432 215.402 120.301 214.482 119.776C214.004 119.501 213.526 119.107 213.061 118.606C212.881 119.43 212.535 120.17 212.033 120.826C211.532 121.471 210.827 121.936 209.907 122.187C208.45 122.569 206.993 122.342 205.512 121.494C205.321 121.387 205.13 121.268 204.951 121.136C203.266 119.979 201.917 118.296 200.89 116.088C199.815 113.785 199.444 111.851 199.779 110.252C200.113 108.665 201.224 107.614 203.087 107.101C203.732 106.922 204.449 106.839 205.237 106.863C206.025 106.886 206.706 107.006 207.304 107.233L204.114 100.406C203.481 99.0334 202.801 98.1145 202.096 97.6251C202.036 97.5893 201.964 97.5416 201.905 97.5058C201.248 97.1239 200.579 97.0165 199.91 97.2074C199.193 97.3984 198.728 97.828 198.537 98.5083C198.799 98.556 199.05 98.6396 199.289 98.7828C199.516 98.9141 199.743 99.0931 199.958 99.3079C200.388 99.7495 200.758 100.275 201.045 100.883C201.558 101.981 201.714 102.924 201.534 103.76C201.355 104.571 200.878 105.084 200.113 105.287C199.408 105.466 198.704 105.359 197.987 104.953C197.856 104.881 197.724 104.798 197.605 104.702C196.757 104.082 196.052 103.175 195.491 101.981C194.929 100.788 194.667 99.5824 194.702 98.3889C194.726 97.1835 195.132 96.1094 195.897 95.1666C196.673 94.2357 197.856 93.5435 199.444 93.1138C201.523 92.541 203.41 92.7558 205.118 93.7464C205.177 93.7822 205.249 93.818 205.309 93.8657C207.077 94.9518 208.57 96.8255 209.824 99.4989L216.166 113.092C216.68 114.19 217.277 114.93 217.97 115.336C218.28 115.527 218.65 115.635 219.033 115.658ZM210.935 116.947C211.185 116.721 211.353 116.446 211.472 116.148L209.143 111.171C208.785 110.992 208.402 110.873 207.984 110.789C207.578 110.717 207.208 110.717 206.897 110.789C206.288 110.956 205.93 111.398 205.822 112.102C205.715 112.806 205.918 113.725 206.444 114.859C206.874 115.79 207.435 116.494 208.092 116.983C208.199 117.067 208.307 117.138 208.414 117.198C208.976 117.52 209.537 117.604 210.075 117.461C210.409 117.365 210.696 117.198 210.935 116.947Z" fill="white"/>
<path d="M203.613 121.793C203.756 122.414 203.804 122.963 203.756 123.428L194.905 125.815C194.475 125.469 194.057 125.028 193.663 124.479C193.257 123.93 192.911 123.357 192.624 122.748C193.866 122.402 194.105 121.423 193.329 119.776C193.018 119.096 192.552 118.309 191.979 117.425L191.274 116.399L183.965 118.38L184.275 119.514C184.574 120.624 184.824 121.4 185.039 121.841C185.458 122.748 185.959 123.369 186.544 123.703C187.082 124.013 187.679 124.073 188.348 123.894C188.635 124.503 188.85 125.123 188.993 125.732C189.136 126.352 189.172 126.901 189.136 127.367L181.85 129.348C181.42 129.002 181.002 128.548 180.596 128.011C180.19 127.462 179.844 126.89 179.557 126.269C180.166 126.102 180.596 125.672 180.823 124.968C181.062 124.276 181.038 123.345 180.775 122.187L174.529 95.9072C173.454 95.7043 172.247 95.764 170.922 96.134C170.229 94.666 169.918 93.3532 169.978 92.2313L178.924 89.8086L198.572 117.211C199.301 118.237 200.065 119.001 200.877 119.478C201.69 119.944 202.382 120.099 202.98 119.944C203.266 120.564 203.481 121.185 203.613 121.793ZM182.806 114.203L188.682 112.616L180.417 100.526C179.748 99.5473 179.091 98.7476 178.446 98.1032L182.806 114.203Z" fill="white"/>
<path d="M119.405 343.764C119.226 347.917 119.405 352.81 119.405 352.81L116.992 352.941C114.651 353.073 112.609 354.588 111.809 356.784L111.749 356.94C111.331 358.085 110.089 358.706 108.93 358.336C108.321 358.145 107.831 357.715 107.556 357.142L106.326 346.712L119.405 343.764Z" fill="#FFC3C2"/>
<path d="M122.953 379.937C129.284 382.634 138.97 383.16 142.996 376.715V378.457C138.97 384.914 129.284 384.389 122.953 381.68C116.623 378.982 118.008 374.567 112.335 372.192C108.704 370.807 106.793 368.695 106.793 368.695C106.769 368.182 106.685 367.537 106.59 366.785C107.605 367.704 109.743 369.447 112.323 370.437C118.008 372.824 116.623 377.24 122.953 379.937Z" fill="#37474F"/>
<path d="M106.6 361.07C106.887 359.172 106.756 358.002 106.565 357.334C106.409 356.773 106.517 356.165 106.851 355.675L107.317 355.21L107.544 357.131C107.819 357.704 108.32 358.134 108.918 358.325C110.076 358.683 111.33 358.074 111.736 356.928L111.796 356.773C112.596 354.565 114.639 353.05 116.98 352.93L119.44 352.799C120.193 352.763 120.886 353.193 121.172 353.885C123.704 359.972 130.047 366.739 134.944 369.83C138.539 369.746 142.982 372.73 142.982 376.346V376.704C138.957 383.161 129.27 382.636 122.94 379.926C116.61 377.229 117.995 372.813 112.322 370.438C109.742 369.448 107.604 367.705 106.588 366.786C106.421 365.306 106.242 363.385 106.6 361.07Z" fill="#DFBB7F"/>
<path d="M118.855 366.057C118.58 366.391 118.078 366.439 117.732 366.152C117.398 365.878 117.326 365.377 117.601 365.043C120.157 361.88 123.238 361.188 125.866 361.414C126.2 361.832 126.547 362.25 126.905 362.656C123.919 362.5 121.244 363.145 118.855 366.057Z" fill="white"/>
<path d="M116.347 363.265C116.072 363.599 115.571 363.647 115.224 363.361C114.89 363.086 114.818 362.585 115.093 362.251C117.637 359.1 120.874 358.289 123.717 358.527C124.015 358.981 124.338 359.434 124.672 359.876C121.579 359.673 118.819 360.258 116.347 363.265Z" fill="white"/>
<path d="M121.447 368.79C121.172 369.124 120.67 369.172 120.324 368.886C119.989 368.611 119.918 368.11 120.192 367.776C122.677 364.697 125.663 363.969 128.243 364.136C128.649 364.565 129.067 364.983 129.485 365.389C126.499 365.234 123.835 365.878 121.447 368.79Z" fill="white"/>
<path d="M134.944 369.83C138.539 369.746 142.982 372.73 142.982 376.346V376.704C139.017 383.065 129.557 382.648 123.227 380.046C123.728 371.369 132.077 369.806 134.944 369.83Z" fill="white"/>
<path d="M124.111 371.392C123.836 371.727 123.334 371.774 122.988 371.5C122.653 371.225 122.582 370.724 122.857 370.39C125.341 367.299 128.339 366.571 130.931 366.75C131.432 367.203 131.934 367.621 132.436 368.015C129.342 367.8 126.583 368.385 124.111 371.392Z" fill="white"/>
<path d="M85.7585 351.451C85.5794 355.604 85.7585 360.498 85.7585 360.498L83.3458 360.629C81.0048 360.76 78.9623 362.276 78.1621 364.472L78.1023 364.627C77.6843 365.773 76.4421 366.393 75.2835 366.023C74.6744 365.832 74.1847 365.403 73.9099 364.83L72.6797 354.399L85.7585 351.451Z" fill="#FFC3C2"/>
<path d="M89.3068 387.636C95.6372 390.334 105.324 390.859 109.349 384.414V386.156C105.324 392.613 95.6372 392.088 89.3068 389.379C82.9764 386.682 84.362 382.266 78.6885 379.891C75.0575 378.506 73.1464 376.394 73.1464 376.394C73.1225 375.881 73.0389 375.236 72.9434 374.484C73.9586 375.403 76.0966 377.146 78.6766 378.136C84.362 380.523 82.9764 384.939 89.3068 387.636Z" fill="#37474F"/>
<path d="M72.9539 368.769C73.2405 366.871 73.1092 365.702 72.9181 365.033C72.7628 364.472 72.8703 363.864 73.2047 363.374L73.6705 362.909L73.8975 364.83C74.1722 365.403 74.6738 365.833 75.271 366.024C76.4296 366.382 77.6838 365.773 78.0899 364.628L78.1496 364.472C78.9498 362.265 80.9923 360.749 83.3333 360.629L85.7938 360.498C86.5463 360.462 87.2391 360.892 87.5257 361.584C90.0579 367.671 96.4002 374.438 101.297 377.529C104.893 377.445 109.336 380.429 109.336 384.045V384.403C105.311 390.86 95.6239 390.335 89.2935 387.626C82.9631 384.928 84.3486 380.513 78.6751 378.138C76.0952 377.147 73.9572 375.405 72.9419 374.486C72.7747 373.006 72.5956 371.072 72.9539 368.769Z" fill="#DFBB7F"/>
<path d="M85.1966 373.758C84.9219 374.092 84.4202 374.14 84.0739 373.854C83.7394 373.579 83.6678 373.078 83.9425 372.744C86.4985 369.581 89.5801 368.889 92.2078 369.116C92.5423 369.533 92.8886 369.951 93.247 370.357C90.2729 370.202 87.5974 370.834 85.1966 373.758Z" fill="white"/>
<path d="M82.7005 370.965C82.4258 371.299 81.9241 371.347 81.5778 371.06C81.2433 370.786 81.1717 370.284 81.4464 369.95C83.9905 366.799 87.2273 365.988 90.0701 366.226C90.3687 366.68 90.6911 367.122 91.0256 367.575C87.932 367.372 85.1729 367.957 82.7005 370.965Z" fill="white"/>
<path d="M87.8001 376.489C87.5254 376.824 87.0238 376.871 86.6774 376.585C86.3429 376.31 86.2713 375.809 86.546 375.475C89.0304 372.396 92.0164 371.668 94.5963 371.835C95.0024 372.264 95.4205 372.682 95.8385 373.088C92.8525 372.933 90.189 373.565 87.8001 376.489Z" fill="white"/>
<path d="M101.297 377.529C104.892 377.446 109.336 380.429 109.336 384.045V384.403C105.37 390.765 95.9105 390.347 89.5801 387.745C90.0817 379.057 98.4307 377.493 101.297 377.529Z" fill="white"/>
<path d="M90.4642 379.092C90.1895 379.426 89.6878 379.474 89.3414 379.187C89.007 378.913 88.9353 378.412 89.2101 378.077C91.6944 374.986 94.6924 374.258 97.2723 374.437C97.774 374.891 98.2756 375.309 98.7773 375.702C95.6957 375.5 92.9366 376.084 90.4642 379.092Z" fill="white"/>
<path d="M127.587 212.543L126.404 293.257L122.594 349.744C112.943 355.842 102.97 350.066 102.97 350.066C99.315 323.296 99.1598 306.755 101.154 295.62L99.9839 252.524L98.0728 297.088L88.9953 354.148C79.0936 360.556 68.3319 353.957 68.3319 353.957C68.3319 333.441 66.2297 309.058 71.8793 294.259C67.89 248.538 74.6145 213.414 74.6145 213.414L127.587 212.543Z" fill="#37474F"/>
<path opacity="0.3" d="M103.985 236.304L99.9961 252.512L100.557 273.326L106.541 239.789C115.153 236.424 116.276 231.686 116.276 231.686C110.662 235.815 103.985 236.304 103.985 236.304Z" fill="black"/>
<path d="M78.4246 143.596C92.4231 137.044 102.91 136.281 114.353 135.779C131.481 146.795 125.067 155.973 124.78 170.688C124.493 185.404 126.321 202.518 130.071 218.773C107.616 236.687 77.9229 232.474 71.1387 228.165C72.7392 184.341 70.8162 146.735 78.4246 143.596Z" fill="#DFBB7F"/>
<path opacity="0.6" d="M78.4246 143.596C92.4231 137.044 102.91 136.281 114.353 135.779C131.481 146.795 125.067 155.973 124.78 170.688C124.493 185.404 126.321 202.518 130.071 218.773C107.616 236.687 77.9229 232.474 71.1387 228.165C72.7392 184.341 70.8162 146.735 78.4246 143.596Z" fill="white"/>
<path d="M120.923 114.13C123.252 112.459 124.936 109.893 125.521 107.076C126.106 104.26 125.617 101.24 124.159 98.77C125.426 98.1613 126.656 97.1588 127.229 95.8818C127.779 94.6525 127.504 93.0891 126.572 92.1224C125.629 91.1557 124.076 90.8454 122.834 91.3586C123.61 89.449 122.714 86.8473 120.935 85.809C119.155 84.7706 116.635 85.2361 115.345 86.8353C115.428 85.5225 114.521 84.2575 113.266 83.8517C112.012 83.4459 110.639 83.6727 109.396 84.0904C108.154 84.52 106.972 85.1406 105.718 85.5345C103.604 86.2028 101.334 86.2147 99.1245 86.3699C96.9029 86.525 94.6216 86.8592 92.7464 88.0646C90.8831 89.27 89.2348 92.0985 90.2381 94.5212C89.6051 93.7216 88.6017 93.1488 87.5865 93.113C86.5712 93.0772 85.556 93.5068 84.8752 94.2587C86.2607 95.118 87.6104 96.037 88.9959 96.8962C87.5984 96.2637 85.5202 97.2543 84.7557 98.579C84.0032 99.9038 83.9674 101.515 84.0033 103.043C84.1705 108.855 85.2335 114.631 87.0729 120.145C88.0165 122.997 90.6561 127.843 93.3675 129.156L120.923 114.13Z" fill="#263238"/>
<path d="M120.934 99.0801C118.521 101.551 114.568 103.174 111.116 103.209C107.664 103.245 104.32 102.111 100.999 101.193C100.713 102.792 99.9004 104.296 98.706 105.417C97.5235 106.527 95.6125 107.279 94 107.47C94.4778 110.573 94.4658 113.76 93.9642 116.863C93.8567 117.519 93.4148 118.116 92.7698 118.307C91.647 118.629 90.9065 117.483 90.3571 116.552C89.736 115.49 88.9715 114.488 87.9205 113.843C86.8813 113.199 85.5197 112.96 84.4089 113.485C83.5011 113.915 82.8561 114.786 82.5575 115.741C82.2589 116.696 82.2709 117.722 82.4142 118.713C82.6531 120.36 83.2622 121.995 84.3492 123.26C85.4361 124.537 87.0127 125.42 88.6849 125.491C90.3571 125.563 92.0173 124.883 92.8414 123.439L92.9131 123.737C93.0326 124.238 93.1878 124.716 93.367 125.193C94.86 129.132 98.2641 132.091 102.456 132.974C104.559 133.416 106.912 133.834 109.289 134.204C110.459 134.383 111.642 134.55 112.824 134.693C117.315 135.23 121.436 132.187 122.224 127.735C123.848 118.653 124.386 108.067 120.934 99.0801Z" fill="#FFC3C2"/>
<path d="M93.3789 125.193V141.019C96.3052 145.041 101.155 147.762 106.123 148.072C107.736 148.168 109.503 147.989 110.698 146.902C111.665 146.031 112.119 144.623 111.845 143.346C111.641 142.403 111.044 141.568 110.244 141.043C109.671 140.661 109.312 140.04 109.312 139.348V134.204C106.924 133.846 104.583 133.416 102.48 132.975C98.276 132.092 94.8719 129.144 93.3789 125.193Z" fill="#FFC3C2"/>
<path d="M103.961 136.459C105.705 136.948 107.509 137.211 109.312 137.402V134.191C106.923 133.833 104.582 133.404 102.48 132.962C98.5386 132.139 95.3136 129.465 93.7012 125.873C94.1192 128.332 95.1942 130.695 96.9022 132.497C98.7774 134.478 101.322 135.731 103.961 136.459Z" fill="#FFA8A7"/>
<path d="M113.016 112.604L118.832 119.633L113.493 121.519L113.016 112.604Z" fill="#FFA8A7"/>
<path d="M104.809 113.486C104.809 114.369 105.513 115.085 106.397 115.097C107.281 115.097 107.998 114.393 107.998 113.51C107.998 112.626 107.293 111.91 106.409 111.91C105.525 111.898 104.809 112.603 104.809 113.486Z" fill="#263238"/>
<path d="M118.211 113.056C118.211 113.939 118.916 114.655 119.8 114.655C120.683 114.655 121.4 113.951 121.4 113.068C121.4 112.185 120.695 111.469 119.811 111.469C118.94 111.457 118.211 112.173 118.211 113.056Z" fill="#263238"/>
<path d="M117.363 105.979C118.785 106.134 120.218 106.302 121.639 106.457C121.556 105.55 120.743 104.75 119.848 104.583C118.952 104.404 117.793 105.168 117.363 105.979Z" fill="#263238"/>
<path d="M107.831 105.969C106.458 106.375 105.084 106.792 103.71 107.198C103.639 106.291 104.296 105.36 105.144 105.038C105.98 104.704 107.27 105.253 107.831 105.969Z" fill="#263238"/>
<path d="M106.887 123.832C108.368 124.548 109.861 125.276 111.342 125.992C110.697 127.007 109.06 127.448 107.962 126.947C106.875 126.458 106.564 124.99 106.887 123.832Z" fill="#FFA8A7"/>
<path opacity="0.3" d="M106.887 123.832C108.368 124.548 109.861 125.276 111.342 125.992C110.697 127.007 109.06 127.448 107.962 126.947C106.875 126.458 106.564 124.99 106.887 123.832Z" fill="black"/>
<path d="M109.515 127.102C108.978 127.197 108.428 127.161 107.962 126.959C107.102 126.577 106.732 125.574 106.768 124.607C107.401 124.607 108.034 124.822 108.524 125.216C109.097 125.682 109.443 126.374 109.515 127.102Z" fill="#FFA8A7"/>
<path d="M66.218 234.825L46.4624 200.155C44.6469 196.503 44.5155 192.243 46.116 188.495L57.1046 162.669C60.7118 154.195 67.6274 147.583 76.2511 144.349L79.0222 143.311C80.5988 158.802 75.9167 166.273 61.727 193.173C61.727 193.173 69.2041 218.272 75.0448 229.431C79.6313 231.591 84.0268 234.766 87.5383 238.489C88.3147 239.313 88.3744 240.59 87.6697 241.473L87.6458 241.509C87.0247 242.296 85.9259 242.535 85.0301 242.07C83.1309 241.091 81.2318 240.077 79.3208 239.11C81.3154 243.394 83.7759 247.655 86.7381 251.379C87.4547 252.274 87.3711 253.563 86.5947 254.386L86.5709 254.41C86.0573 254.959 85.2928 255.222 84.5403 255.114C82.4621 254.804 80.4077 254.506 78.3533 254.207C74.7103 253.67 71.569 251.367 69.9446 248.061C67.9022 243.908 66.6002 239.265 66.218 234.825Z" fill="#FFC3C2"/>
<path d="M79.0219 143.322C66.9941 147.44 60.186 150.185 50.6426 176.059C55.4202 183.447 68.5707 182.444 68.5707 182.444C85.6748 156.641 79.0219 143.322 79.0219 143.322Z" fill="#DFBB7F"/>
<path opacity="0.3" d="M79.0219 143.322C66.9941 147.44 60.186 150.185 50.6426 176.059C55.4202 183.447 68.5707 182.444 68.5707 182.444C85.6748 156.641 79.0219 143.322 79.0219 143.322Z" fill="white"/>
<path d="M175.363 136.27C175.268 136.055 175.268 135.709 175.423 135.16C176.355 131.937 177.286 128.882 175.519 127.605C175.017 127.247 174.3 127.486 174.05 128.047C173.345 129.562 171.685 132.271 170.729 134.074C170.132 135.195 169.881 136.854 169.559 138.513L175.352 136.281L175.363 136.27Z" fill="#FFC3C2"/>
<path d="M150.318 281.181C150.043 280.178 150.521 275.572 149.41 274.784C148.299 273.996 150.377 272.337 152.396 273.996C154.402 275.667 150.318 281.181 150.318 281.181Z" fill="#FFA8A7"/>
<path d="M151.654 247.167L151.762 283.305L165.474 275.392L165.378 239.254L151.654 247.167Z" fill="#F0F0F0"/>
<path d="M153.076 247.979L153.1 254.972L163.981 248.695L163.969 241.701L153.076 247.979Z" fill="#DFBB7F"/>
<path d="M153.1 256.608L153.124 263.602L164.005 257.324L163.993 250.318L153.1 256.608Z" fill="#DFBB7F"/>
<path d="M153.123 265.225L153.147 272.231L164.028 265.953L164.016 258.947L153.123 265.225Z" fill="#DFBB7F"/>
<path d="M153.148 273.866L153.172 280.859L164.053 274.582L164.041 267.588L153.148 273.866Z" fill="#DFBB7F"/>
<g opacity="0.6">
<path opacity="0.6" d="M153.076 247.979L153.1 254.972L163.981 248.695L163.969 241.701L153.076 247.979Z" fill="white"/>
</g>
<g opacity="0.4">
<path opacity="0.4" d="M153.1 256.608L153.124 263.602L164.005 257.324L163.993 250.318L153.1 256.608Z" fill="white"/>
</g>
<g opacity="0.2">
<path opacity="0.2" d="M153.123 265.225L153.147 272.231L164.028 265.953L164.016 258.947L153.123 265.225Z" fill="white"/>
</g>
<path d="M64.6899 277.444L44.8029 322.509L54.9435 333.609L51.3364 348.766L31.2941 331.377C27.6153 328.178 26.5284 322.915 28.6425 318.523L44.7432 285.082C47.0723 280.237 52.0172 277.206 57.3921 277.301L64.6899 277.444Z" fill="#E0E0E0"/>
<path opacity="0.3" d="M40.7422 328.047C40.7422 328.047 43.9313 325.41 44.8032 322.51L46.559 324.443C45.6393 325.851 43.7879 327.379 40.7422 328.047Z" fill="black"/>
<path d="M78.8554 517.08C79.6915 518.834 82.3311 520.445 85.2336 520.922C88.1241 521.4 91.0743 520.767 93.9886 520.373C98.3124 519.777 102.696 519.657 107.044 520.039C109.755 520.278 112.454 520.708 115.166 520.624C117.877 520.541 120.672 519.896 122.81 518.201C124.327 517.008 125.414 515.206 125.676 513.332C126.035 515.779 124.781 518.345 122.81 519.896C120.684 521.579 117.889 522.223 115.166 522.319C112.454 522.402 109.743 521.973 107.044 521.734C102.696 521.352 98.3124 521.46 93.9886 522.068C91.0862 522.474 87.933 523.309 85.0305 522.832C82.14 522.355 79.4884 520.743 78.6523 518.989L78.8554 517.08Z" fill="#263238"/>
<path d="M110.555 511.925C108.119 511.925 109.014 508.321 106.697 505.91C107.641 505.97 108.584 505.982 109.54 505.982C111.606 508.977 112.192 511.925 110.555 511.925Z" fill="white"/>
<path d="M105.492 511.734C103.043 511.734 103.688 507.438 101.275 504.932C101.825 505.123 102.386 505.29 102.948 505.409C103.425 505.516 103.915 505.6 104.393 505.672C106.543 508.715 107.152 511.734 105.492 511.734Z" fill="white"/>
<path d="M81.3757 503.499C81.5429 502.699 81.9968 501.995 82.6418 501.518L95.8042 501.195C97.1539 502.997 99.1247 504.203 101.275 504.943C103.687 507.449 103.042 511.746 105.491 511.746C107.151 511.746 106.542 508.726 104.392 505.683C105.156 505.79 105.921 505.874 106.697 505.909C109.014 508.32 108.119 511.925 110.555 511.925C112.204 511.925 111.618 508.977 109.528 505.981C110.137 505.981 110.758 505.969 111.367 505.957C111.929 505.945 112.49 505.909 113.052 505.862C117.889 509.693 118.307 513.834 117.686 520.35C116.85 520.494 116.002 520.589 115.166 520.613C112.454 520.696 109.743 520.267 107.044 520.028C102.696 519.646 98.3125 519.754 93.9887 520.362C91.0863 520.768 88.1361 521.389 85.2336 520.911C82.3432 520.434 79.6916 518.823 78.8555 517.068L81.3757 503.499Z" fill="#455A64"/>
<path d="M113.051 505.862C115.26 505.683 117.506 505.337 119.632 505.862C122.307 506.519 124.864 508.357 125.556 511.018C125.759 511.782 125.771 512.57 125.664 513.334C125.401 515.207 124.314 517.009 122.797 518.203C121.328 519.361 119.536 520.029 117.685 520.363C118.306 513.835 117.9 509.693 113.051 505.862Z" fill="white"/>
<path d="M96.1858 497.436V503.773C96.1858 505.217 95.0153 506.375 93.582 506.375H86.941C84.6358 506.375 82.7367 504.549 82.665 502.245L82.5098 497.436H96.1858V497.436Z" fill="#FFA8A7"/>
<path d="M52.3035 494.619C53.0918 496.207 54.5371 497.269 56.2928 497.412C58.0247 497.555 59.888 497.102 61.3452 496.171C63.6265 494.727 64.5224 492.435 66.0751 490.383C67.6278 488.33 69.6225 486.659 71.5814 485.012C73.6596 483.27 75.7379 481.384 76.8487 478.913C77.1593 478.209 77.3623 477.445 77.4698 476.682C77.6729 478.114 77.4459 479.641 76.8487 480.966C75.7379 483.437 73.6596 485.322 71.5814 487.065C69.6225 488.712 67.6278 490.395 66.0751 492.435C64.5224 494.488 63.6265 496.768 61.3452 498.224C59.8761 499.155 58.0128 499.608 56.2928 499.465C54.5251 499.322 53.0918 498.26 52.3035 496.672C52.0288 496.123 52.0168 494.512 52.0646 493.14C52.0885 493.796 52.1602 494.345 52.3035 494.619Z" fill="#263238"/>
<path d="M67.2567 480.703C67.4478 481.037 67.6509 481.419 67.5792 481.789C67.5075 482.159 67.2209 482.481 66.8626 482.613C66.3609 482.792 65.7876 482.577 65.3815 482.231C64.9754 481.885 64.6887 481.431 64.3543 481.013C63.4824 479.904 62.2999 479.032 60.9621 478.543C60.3172 478.304 59.6244 478.149 58.9316 478.101C59.4811 477.6 60.0305 477.099 60.5799 476.598C61.6191 476.657 62.6463 476.896 63.5779 477.338C65.1187 478.042 66.4206 479.235 67.2567 480.703Z" fill="white"/>
<path d="M66.9113 475.477C68.4402 476.193 69.7421 477.386 70.5782 478.854C70.7693 479.188 70.9723 479.57 70.9006 479.94C70.829 480.31 70.5423 480.632 70.184 480.764C69.6823 480.943 69.109 480.728 68.7029 480.382C68.2968 480.036 68.0102 479.582 67.6757 479.164C66.8038 478.055 65.6213 477.183 64.2836 476.694C63.2206 476.3 62.0859 476.157 60.9512 476.252C61.4887 475.763 62.0381 475.262 62.5756 474.772C64.0686 474.617 65.5736 474.856 66.9113 475.477Z" fill="white"/>
<path d="M63.625 473.829C65.1897 472.433 66.8499 471.12 68.7968 470.38C71.1498 469.485 74.0881 469.616 75.9036 471.359C77.301 472.707 77.743 474.736 77.4802 476.682C77.3727 477.457 77.1697 478.221 76.8591 478.913C76.4411 479.856 75.8797 480.704 75.2228 481.503C74.5897 475.834 69.6687 473.185 63.625 473.829Z" fill="white"/>
<path d="M52.1715 489.07C52.3148 487.041 52.4223 485.287 53.4614 483.532L56.6625 480.179C57.4269 479.486 58.1794 478.794 58.9438 478.102C59.6365 478.162 60.3174 478.305 60.9743 478.544C62.3001 479.033 63.4945 479.904 64.3664 481.014C64.7009 481.432 64.9875 481.897 65.3936 482.231C65.7997 482.577 66.373 482.792 66.8747 482.613C67.233 482.494 67.5197 482.172 67.5913 481.79C67.663 481.42 67.46 481.038 67.2689 480.704C66.4328 479.236 65.1309 478.042 63.602 477.326C62.6584 476.885 61.6312 476.658 60.604 476.586C60.7235 476.479 60.8548 476.36 60.9743 476.252C62.097 476.157 63.2437 476.3 64.3067 476.694C65.6325 477.183 66.8269 478.054 67.6988 479.164C68.0333 479.582 68.3199 480.047 68.726 480.382C69.1321 480.728 69.7055 480.942 70.2071 480.763C70.5654 480.644 70.8521 480.322 70.9238 479.94C70.9954 479.57 70.7924 479.188 70.6013 478.854C69.7652 477.386 68.4633 476.192 66.9344 475.476C65.5967 474.844 64.0798 474.617 62.6106 474.76C62.6345 474.736 62.6465 474.725 62.6704 474.701C62.9929 474.402 63.3153 474.116 63.6498 473.817C69.6816 473.173 74.6145 475.822 75.2475 481.491C74.1845 482.78 72.9065 483.926 71.6165 485C69.6577 486.647 67.663 488.318 66.1103 490.371C64.5575 492.424 63.6617 494.703 61.3804 496.159C59.9113 497.09 58.048 497.544 56.328 497.4C54.5603 497.257 53.127 496.195 52.3387 494.608C52.1953 494.333 52.1356 493.784 52.0998 493.128C51.9923 491.66 52.1237 489.643 52.1715 489.07Z" fill="#455A64"/>
<path d="M63.723 479.045L63.3408 485.848C59.0409 488.318 54.526 486.981 53.021 485.406L52.7344 479.045H63.723Z" fill="#FFA8A7"/>
<path d="M54.6093 333.072C54.8601 332.738 55.0751 332.38 55.2543 332.01C68.7034 339.099 84.8519 340.949 99.5551 337.046C102.696 360.39 105.396 399.906 103.736 425.983C102.362 456.333 96.7721 499.31 96.7721 499.31C89.4862 501.494 84.0158 500.157 81.9495 498.582C79.5248 468.471 74.1738 447.836 78.3065 427.929C75.5474 414.013 73.7677 396.528 73.7677 396.528L71.6655 427.26L64.5349 481.324C57.5715 484.881 51.7308 480.68 51.7308 480.68C46.547 449.757 44.6001 428.812 49.1389 413.464C42.2232 362.73 41.8768 349.757 54.6093 333.072Z" fill="#37474F"/>
<path opacity="0.3" d="M70.7103 390.429L66.8882 374.413C62.433 373.685 55.4696 370.773 51.8027 364.662C57.0343 368.72 63.6633 371.178 70.2923 371.178L73.78 396.516L73.0394 407.34L72.7408 403.402C72.4064 399.022 71.7256 394.69 70.7103 390.429Z" fill="black"/>
<path d="M82.2361 278.089L93.38 280.273C95.8405 284.772 98.3488 289.009 100.809 293.508C102.661 296.898 104.572 300.502 104.428 304.369C104.273 308.474 101.562 312.389 97.7516 313.964L103.544 352.298C88.4949 365.94 49.7958 356.189 45.0898 352.143C47.1084 341.903 51.5397 337.857 53.8568 327.116C55.7082 318.523 52.0891 309.083 51.468 306.255C50.5722 302.113 49.6644 297.948 49.5808 293.711C49.4972 289.474 50.2736 285.13 52.5191 281.538C52.543 281.502 52.5669 281.466 52.5908 281.43C55.4812 276.895 60.9517 274.723 66.2668 275.559L82.2361 278.089Z" fill="white"/>
<path d="M64.69 231.58C59.351 235.136 56.126 241.653 56.5441 248.05C56.783 251.737 58.1327 255.365 57.7266 259.029C57.4757 261.19 56.6277 263.374 57.201 265.462C57.6788 267.217 59.1001 268.589 60.7006 269.424C62.3131 270.26 66.0755 270.045 67.8552 270.415C73.2898 275.344 80.1099 273.506 84.4456 269.09C88.7813 264.686 95.8164 248.157 95.8164 248.157C97.8111 245.018 99.0772 241.08 99.2444 237.368C99.3399 235.208 99.0413 232.893 97.6797 231.21C96.3181 229.527 93.6187 228.811 91.9226 230.16C93.5351 228.918 92.3765 226.03 90.6924 224.884C89.0202 223.727 86.7628 223.87 84.8039 224.443C82.8451 225.016 81.0057 225.97 78.9991 226.328C76.3594 226.806 73.6362 226.221 70.9607 226.496C68.2852 226.77 64.9528 228.918 64.69 231.58Z" fill="#37474F"/>
<path d="M96.9377 253.062L100.33 258.958L96.6152 260.331L96.9377 253.062Z" fill="#FF9192"/>
<path d="M97.3205 250.437C96.771 245.269 95.2661 240.4 91.8978 237.93C93.0684 244.709 90.7273 252.454 88.016 256.428C87.6935 254.722 86.7977 253.158 85.5077 252.001C84.2297 250.831 82.2828 250.294 80.6942 250.974C79.5715 251.452 78.7354 252.478 78.2696 253.612C77.3738 255.832 77.8873 258.541 79.5356 260.271C81.1839 262.002 83.8594 262.67 86.1288 261.894C85.3644 266.513 81.4228 270.273 76.8602 271.287C73.8622 271.955 70.7328 271.55 67.8662 270.428L66.4688 277.398C72.1422 283.448 81.8409 279.379 81.8409 279.379L83.1189 272.528C94.2747 273.185 95.3258 273.006 96.556 266.859C97.201 263.47 97.9774 256.739 97.3205 250.437Z" fill="#FFA8A7"/>
<path d="M86.117 261.895C86.0454 263.995 86.0931 266 86.0215 268.101C85.9498 270.309 85.8781 272.588 86.6665 274.665C87.4548 276.741 89.3181 278.555 91.5277 278.591C87.8967 281.551 82.5816 282.398 78.1145 281.014C73.6354 279.63 69.9685 275.906 68.6427 271.419C68.1769 274.689 69.4908 278.102 71.8079 280.477C67.8186 281.647 63.1484 280.56 59.9594 277.887C56.7703 275.214 55.0503 270.893 55.5281 266.764C55.8625 263.864 57.1764 261.191 58.0722 258.422C58.9799 255.653 59.4577 252.514 58.1797 249.9C60.6879 253.003 63.8412 256.142 66.8392 258.78C69.8252 261.417 73.3368 263.577 77.2306 264.449C78.6758 264.771 80.1927 264.914 81.6499 264.616C83.0832 264.306 85.2929 263.124 86.117 261.895Z" fill="#37474F"/>
<path opacity="0.2" d="M69.9335 237.928C69.9335 243.896 65.0961 248.741 59.1121 248.741C58.2402 248.741 57.3921 248.622 56.5799 248.431C56.568 248.312 56.556 248.18 56.5441 248.061C56.126 241.664 59.351 235.148 64.69 231.591C64.7736 230.78 65.1439 230.04 65.6814 229.359C68.2613 231.329 69.9335 234.432 69.9335 237.928Z" fill="black"/>
<path d="M49.6875 234.289C49.6875 240.257 54.5249 245.102 60.5089 245.102C66.481 245.102 71.3303 240.269 71.3303 234.289C71.3303 228.322 66.4929 223.477 60.5089 223.477C54.5249 223.477 49.6875 228.322 49.6875 234.289Z" fill="#37474F"/>
<path d="M155.978 297.232C147.247 310.623 137.775 322.104 132.09 327.904C130.131 329.909 127.014 330.232 124.661 328.692C112.525 320.696 102.492 307.138 102.492 307.138L115.643 298.104L127.025 312.891L148.561 291.719L149.982 279.951C150.102 278.937 150.758 278.053 151.702 277.648L157.77 275.022C158.486 274.712 159.31 274.7 160.039 275.01L163.575 276.49C164.506 276.872 164.817 278.03 164.231 278.841C163.849 279.366 163.168 279.593 162.547 279.414L160.792 278.901L164.9 281.956C165.724 282.565 166.214 283.531 166.214 284.558V286.67C166.214 287.756 165.677 288.771 164.769 289.367L164.267 289.702C163.455 290.239 162.356 289.976 161.878 289.117C161.126 293.545 155.978 297.232 155.978 297.232Z" fill="#FFA8A7"/>
<path d="M160.804 278.889L159.706 278.161C159.311 277.899 158.834 277.803 158.38 277.899L153.363 278.889L158.057 277.278C158.786 277.027 159.598 277.278 160.064 277.887L160.804 278.889Z" fill="#F28F8F"/>
<path d="M161.891 289.104C162.356 287.457 162.619 285.249 161.891 284.438L163.945 285.571L163.718 287.672L161.891 289.104Z" fill="#F28F8F"/>
<path d="M136.714 300.993C135.83 300.766 134.886 301.028 134.229 301.649L131.219 304.525C130.598 305.122 130.3 305.969 130.431 306.829L130.467 307.103L131.339 306.28C142.076 309.693 140.918 320.422 140.918 320.422L139.401 322.344C140.356 322.511 141.324 322.141 141.933 321.377L145.684 316.639C146.078 316.138 146.293 315.517 146.257 314.873C146.09 311.865 144.931 303.045 136.714 300.993Z" fill="white"/>
<path d="M136.714 300.993C135.83 300.766 134.886 301.028 134.229 301.649L131.219 304.525C130.598 305.122 130.3 305.969 130.431 306.829L130.467 307.103L131.339 306.28C142.076 309.693 140.918 320.422 140.918 320.422L139.401 322.344C140.356 322.511 141.324 322.141 141.933 321.377L145.684 316.639C146.078 316.138 146.293 315.517 146.257 314.873C146.09 311.865 144.931 303.045 136.714 300.993Z" fill="#F0F0F0"/>
<path d="M131.326 306.28L130.454 307.103L126.823 310.529L125.557 308.571L110.866 289.464C106.888 284.284 100.988 280.931 94.5144 280.143L92.5555 279.904C92.5555 279.904 88.6139 296.398 97.0585 305.576L113.183 322.63C115.859 325.459 120.314 328.586 123.957 330.925C127.229 333.025 131.553 332.309 133.966 329.254L140.917 320.434C140.905 320.422 142.076 309.693 131.326 306.28Z" fill="#E0E0E0"/>
<path d="M214.816 145.792L219.128 149.802L211.699 191.108L207.112 218.044L191.334 219.882L197.784 191.108L210.003 143.488L214.816 145.792Z" fill="#9C5756"/>
<path d="M208.545 214.738C197.664 210.681 190.545 216.385 190.545 216.385L188.766 262.525L208.187 251.426L208.545 214.738Z" fill="#DFBB7F"/>
<path d="M208.545 214.738C197.664 210.681 190.545 216.385 190.545 216.385L188.766 262.525L208.187 251.426L208.545 214.738Z" fill="#263238"/>
<path opacity="0.1" d="M208.545 214.738C197.664 210.681 190.545 216.385 190.545 216.385L188.766 262.525L208.187 251.426L208.545 214.738Z" fill="white"/>
<path d="M218.232 82.0856C216.441 81.0592 214.983 81.8827 214.983 83.9474L214.41 150.244C214.41 152.309 215.855 154.815 217.635 155.842L297.506 201.921C299.297 202.948 300.754 202.124 300.754 200.06L301.328 133.763C301.328 131.698 299.882 129.192 298.103 128.165L218.232 82.0856Z" fill="#DFBB7F"/>
<path d="M243.518 115.836L221.815 132.902L221.768 149.587L293.934 191.215L293.982 174.542L280.234 147.248L267.884 156.831L272.244 170.377L265.913 158.347L243.518 115.836Z" fill="white"/>
<path d="M267.214 124.238C263.822 122.28 261.051 123.856 261.039 127.747C261.027 131.649 263.774 136.399 267.166 138.356C270.559 140.314 273.33 138.738 273.342 134.848C273.354 130.957 270.618 126.207 267.214 124.238Z" fill="white"/>
<path d="M265.482 240.853L282.634 235.136L293.921 192.53C294.184 191.289 294.077 189.988 293.599 188.806L292.416 185.834C291.795 184.271 291.497 182.588 291.556 180.905L291.771 174.389C291.807 173.315 292.691 172.468 293.754 172.468C294.722 172.468 295.546 173.16 295.713 174.103L296.728 179.76L299.117 182.505L301.052 174.747V164.65L306.164 172.014C307.478 173.912 308.004 176.251 307.621 178.53L305.579 190.907L300.085 238.8C299.272 245.866 294.602 251.893 287.961 254.459L269.95 261.405L265.482 240.853Z" fill="#9C5756"/>
<path d="M228.744 500.048C229.676 502.972 232.877 504.643 235.947 504.882C239.004 505.12 242.026 504.261 245.048 503.724C251.808 502.495 258.33 503.712 265.078 503.557C267.288 503.509 269.522 503.402 271.671 502.841C273.809 502.28 275.876 501.218 277.309 499.523C278.145 498.52 278.73 497.279 278.934 495.99C279.268 497.924 278.587 499.976 277.309 501.492C275.888 503.187 273.821 504.249 271.671 504.81C269.533 505.371 267.3 505.478 265.078 505.526C258.33 505.681 251.808 504.476 245.048 505.693C242.026 506.242 239.004 507.101 235.947 506.851C232.889 506.612 229.676 504.929 228.744 502.005C228.422 501.003 228.41 499.941 228.505 498.89C228.553 499.296 228.625 499.678 228.744 500.048Z" fill="#263238"/>
<path d="M228.911 494.451C229.329 492.41 229.735 490.358 230.153 488.317C230.368 487.231 230.607 486.121 231.192 485.19C231.79 484.259 232.829 483.531 233.928 483.626C237.63 483.137 242.838 481.8 245.92 483.913C250.733 487.231 256.633 488.937 262.486 488.723C265.544 488.603 268.613 487.983 271.647 488.353C274.681 488.723 277.846 490.417 278.754 493.341C279.017 494.212 279.053 495.119 278.909 496.003C278.706 497.292 278.133 498.533 277.285 499.535C275.864 501.23 273.797 502.292 271.647 502.853C269.509 503.414 267.276 503.521 265.054 503.569C258.306 503.724 251.784 502.519 245.024 503.736C242.002 504.285 238.98 505.145 235.922 504.894C232.865 504.655 229.652 502.972 228.72 500.06C228.601 499.69 228.529 499.309 228.481 498.927C228.326 497.447 228.612 495.919 228.911 494.451Z" fill="#37474F"/>
<path d="M246.827 477.48L247.09 485.477C247.15 487.171 245.848 488.639 244.152 488.747C241.405 488.926 238.729 488.914 236.09 488.663C233.844 488.448 232.088 486.634 231.969 484.379L231.646 478.471L246.827 477.48Z" fill="#9C5756"/>
<path d="M194.559 473.22C194.643 474.413 194.929 475.583 195.634 476.526C196.518 477.707 197.963 478.376 199.409 478.65C202.92 479.307 206.754 477.731 208.785 474.795C209.788 473.339 210.361 471.621 211.317 470.129C212.643 468.064 214.625 466.513 216.572 465.021C218.519 463.529 220.514 462.001 221.864 459.949C223.177 457.967 223.775 455.366 222.879 453.182C223.07 453.444 223.237 453.731 223.38 454.029C224.432 456.32 223.81 459.125 222.425 461.238C221.039 463.35 219.009 464.925 217.014 466.465C215.02 468.004 213.001 469.592 211.651 471.728C210.684 473.268 210.099 475.034 209.071 476.538C206.993 479.569 203.087 481.192 199.504 480.512C198.023 480.237 196.554 479.545 195.646 478.316C194.691 477.027 194.5 475.332 194.523 473.721C194.535 473.566 194.547 473.399 194.559 473.22Z" fill="#263238"/>
<path d="M196.983 463.184C199.419 458.923 204.436 455.82 208.306 452.8C210.503 451.082 213.035 449.626 215.807 449.399C218.589 449.172 221.623 450.437 222.794 452.967C222.83 453.039 222.842 453.123 222.877 453.194C223.773 455.378 223.176 457.98 221.862 459.961C220.513 462.014 218.518 463.542 216.571 465.033C214.624 466.525 212.641 468.077 211.316 470.141C210.36 471.633 209.787 473.352 208.783 474.808C206.753 477.744 202.919 479.319 199.407 478.663C197.95 478.388 196.517 477.72 195.633 476.538C194.928 475.596 194.641 474.426 194.558 473.233C194.534 472.851 194.522 472.457 194.534 472.075C194.594 468.972 195.442 465.881 196.983 463.184Z" fill="#37474F"/>
<path d="M207.543 459.484V466.753C200.902 469.521 196.22 466.251 196.22 466.251L195.539 459.711L207.543 459.484Z" fill="#9C5756"/>
<path d="M193.628 327.594C191.442 334.134 194.129 365.212 195.395 395.013C190.666 406.279 191.944 438.264 194.667 460.987C194.667 460.987 204.174 464.09 212.714 461.19L218.675 398.295L220.168 362.861C220.168 362.861 222.867 394.297 225.949 414.478C223.034 429.921 221.876 432.094 226.462 480.691C226.462 480.691 238.311 484.63 247.042 480.357C251.103 413.607 249.61 352.764 248.845 330.888L193.628 327.594Z" fill="#DFBB7F"/>
<path opacity="0.3" d="M193.628 327.594C191.442 334.134 194.129 365.212 195.395 395.013C190.666 406.279 191.944 438.264 194.667 460.987C194.667 460.987 204.174 464.09 212.714 461.19L218.675 398.295L220.168 362.861C220.168 362.861 222.867 394.297 225.949 414.478C223.034 429.921 221.876 432.094 226.462 480.691C226.462 480.691 238.311 484.63 247.042 480.357C251.103 413.607 249.61 352.764 248.845 330.888L193.628 327.594Z" fill="black"/>
<path opacity="0.3" d="M219.261 384.438L220.479 355.533C213.002 355.533 206.062 349.947 200.795 344.66C205.859 353.683 215.689 357.681 215.689 357.681L219.261 384.438Z" fill="black"/>
<path d="M249.991 332.641C216.643 346.605 195.024 333.99 192.086 327.426C193.627 304.38 188.168 277.431 188.598 265.986C189.016 254.541 190.426 241.639 208.187 244.217L227.082 246.055L236.674 248.382L248.176 272.24L249.991 332.641Z" fill="#263238"/>
<path d="M208.187 235.171C207.052 235.326 205.272 234.753 204.496 233.917C203.72 233.082 203.385 231.865 203.624 230.755C202.501 230.552 201.51 229.752 201.08 228.702C200.65 227.652 201.008 226.184 201.665 225.253C200.041 224.847 198.631 223.689 197.903 222.186C197.174 220.682 197.043 218.737 197.736 217.221C195.956 216.767 194.463 215.323 193.961 213.557C193.46 211.791 193.758 209.499 195.036 208.174C193.483 206.157 193.149 203.269 194.188 200.942C195.227 198.615 197.855 196.932 200.399 196.753C200.005 194.306 200.96 191.681 202.836 190.058C204.711 188.434 207.339 187.981 209.704 188.709C210.516 186.644 212.487 185.069 214.684 184.735C216.882 184.401 219.319 185.081 220.704 186.823C221.791 185.582 223.523 184.938 225.159 185.188C226.796 185.427 228.516 186.334 229.184 187.838C231.287 186.907 233.855 187.122 235.766 188.387C237.677 189.664 238.776 192.003 238.728 194.294C240.424 194.748 241.678 196.478 241.582 198.221C241.487 199.963 240.018 201.73 238.298 202.004C236.661 210.955 233.604 219.846 229.435 227.938C227.56 231.578 225.267 235.266 221.636 237.164C217.706 239.216 211.543 238.047 208.187 235.171Z" fill="#263238"/>
<path d="M208.187 235.171C207.052 235.326 205.272 234.753 204.496 233.917C203.72 233.082 203.385 231.865 203.624 230.755C202.501 230.552 201.51 229.752 201.08 228.702C200.65 227.652 201.008 226.184 201.665 225.253C200.041 224.847 198.631 223.689 197.903 222.186C197.174 220.682 197.043 218.737 197.736 217.221C195.956 216.767 194.463 215.323 193.961 213.557C193.46 211.791 193.758 209.499 195.036 208.174C193.483 206.157 193.149 203.269 194.188 200.942C195.227 198.615 197.855 196.932 200.399 196.753C200.005 194.306 200.96 191.681 202.836 190.058C204.711 188.434 207.339 187.981 209.704 188.709C210.516 186.644 212.487 185.069 214.684 184.735C216.882 184.401 219.319 185.081 220.704 186.823C221.791 185.582 223.523 184.938 225.159 185.188C226.796 185.427 228.516 186.334 229.184 187.838C231.287 186.907 233.855 187.122 235.766 188.387C237.677 189.664 238.776 192.003 238.728 194.294C240.424 194.748 241.678 196.478 241.582 198.221C241.487 199.963 240.018 201.73 238.298 202.004C236.661 210.955 233.604 219.846 229.435 227.938C227.56 231.578 225.267 235.266 221.636 237.164C217.706 239.216 211.543 238.047 208.187 235.171Z" fill="#263238"/>
<path d="M239.648 213.855L243.565 220.646L239.277 222.234L239.648 213.855Z" fill="#F28F8F"/>
<path d="M239.648 213.855L243.565 220.646L239.277 222.234L239.648 213.855Z" fill="#803837"/>
<path d="M238.297 202.016C240.889 211.384 241.283 221.362 239.42 230.897C239.097 232.521 238.691 234.203 237.616 235.468C236.41 236.901 234.511 237.605 232.647 237.76C230.784 237.915 228.909 237.569 227.069 237.223V246.066C220.357 247.654 213.441 248.274 208.174 244.228V235.182C211.948 236.292 216.057 236.745 219.903 235.91C224.549 233.404 225.481 224.942 224.824 222.698C224.143 223.82 222.483 224.262 221.193 223.975C219.903 223.677 218.84 222.722 218.183 221.588C217.526 220.443 217.227 219.13 217.06 217.829C216.857 216.242 216.857 214.511 217.753 213.163C218.84 211.516 221.097 210.883 223.008 211.396C224.92 211.909 226.46 213.377 227.428 215.096C227.738 215.645 227.989 216.206 228.204 216.791C228.598 217.853 230.139 217.662 230.247 216.528C230.474 213.998 230.032 211.408 228.921 209.129C230.414 209.153 231.823 208.007 232.707 206.801C233.603 205.608 233.878 203.973 233.436 202.553C235.681 202.803 238.297 202.016 238.297 202.016Z" fill="#9C5756"/>
<path d="M214.433 147.332L217.897 138.393L219.462 131.376C219.665 130.48 219.151 129.573 218.279 129.287C217.348 128.977 216.333 129.478 216.01 130.409L214.696 134.216V123.463L210.205 131.495C209.524 132.7 209.226 134.085 209.345 135.469L208.438 149.624L214.433 147.332Z" fill="#9C5756"/>
<path d="M236.625 248.372C247.256 244.863 266.175 239.146 266.175 239.146C274.668 247.704 273.951 261.524 273.951 261.524L248.163 272.253C223.559 280.046 219.963 253.874 236.625 248.372Z" fill="#263238"/>
<path opacity="0.1" d="M236.625 248.372C247.256 244.863 266.175 239.146 266.175 239.146C274.668 247.704 273.951 261.524 273.951 261.524L248.163 272.253C223.559 280.046 219.963 253.874 236.625 248.372Z" fill="white"/>
</g>
<defs>
<clipPath id="clip0_201_9160">
<rect width="556" height="542" fill="white"/>
</clipPath>
</defs>
</svg>
